<svg xmlns="http://www.w3.org/2000/svg" viewBox="0 0 500 500"><g id="freepik--Floor--inject-45"><path id="freepik--floor--inject-45" d="M77.66,249.34c-95.18,55-95.17,144,0,199s249.49,54.95,344.67,0,95.17-144,0-199S172.84,194.38,77.66,249.34Z" style="fill:#fafafa"></path></g><g id="freepik--Shelves--inject-45"><g id="freepik--shelves--inject-45"><g id="freepik--Shelf--inject-45"><polygon points="121.72 144.9 93.49 128.6 19.14 171.47 19.14 174.57 47.37 190.87 121.72 148 121.72 144.9" style="fill:#ebebeb"></polygon><polygon points="47.37 187.77 121.72 144.9 93.49 128.6 19.14 171.47 47.37 187.77" style="fill:#fafafa"></polygon><polygon points="47.37 187.77 47.37 190.87 19.14 174.57 19.14 171.47 47.37 187.77" style="fill:#e6e6e6"></polygon><polygon points="101.98 101.73 118.54 111.3 118.54 142.81 101.98 133.24 101.98 101.73" style="fill:#ebebeb"></polygon><path d="M118,111.82l-16-9.2a6.76,6.76,0,0,1-3.67,2l15.9,9.16A16.23,16.23,0,0,0,118,111.82Z" style="fill:#fff"></path><path d="M112.67,113.73a3.41,3.41,0,0,0,3.08,0l2.7-1.55a.93.93,0,0,0,0-1.77l-15.8-9.07-.67.39,15.54,9a.56.56,0,0,1,0,1.06L115,113.18a2,2,0,0,1-1.85,0l-15.53-9-.76.43Z" style="fill:#fafafa"></path><path d="M96.87,104.66v31.51l15.8,9.07a3.47,3.47,0,0,0,3.08,0l2.7-1.55a1.08,1.08,0,0,0,.63-.89V111.29a1.08,1.08,0,0,1-.63.89l-2.7,1.55a3.41,3.41,0,0,1-3.08,0Z" style="fill:#e0e0e0"></path><path d="M114.21,114.1a3.22,3.22,0,0,0,1.54-.37l2.7-1.55a1.08,1.08,0,0,0,.63-.89V142.8a1.08,1.08,0,0,1-.63.89l-2.7,1.55a3.21,3.21,0,0,1-1.54.36Z" style="fill:#f0f0f0"></path><polygon points="95.03 106.5 111.6 116.07 106.45 148.53 89.89 138.96 95.03 106.5" style="fill:#ebebeb"></polygon><path d="M110.94,116.52l-16-9.2A8.74,8.74,0,0,1,90.64,109l15.89,9.16A21.29,21.29,0,0,0,110.94,116.52Z" style="fill:#fff"></path><path d="M104.87,118a4.33,4.33,0,0,0,3.34.15l3.15-1.29c1-.4,1.11-1.13.26-1.62l-15.8-9.07-.79.32,15.54,9c.51.3.44.73-.15,1l-2.93,1.18a2.54,2.54,0,0,1-2-.09l-15.53-9-.88.36Z" style="fill:#fafafa"></path><path d="M89.07,108.94,83.92,141.4l15.81,9.07a4.28,4.28,0,0,0,3.34.15l3.15-1.29c.5-.2.77-.48.82-.78l5.14-32.46c0,.3-.32.58-.82.78l-3.15,1.29a4.28,4.28,0,0,1-3.34-.15Z" style="fill:#e0e0e0"></path><path d="M106.49,118.42a4.18,4.18,0,0,0,1.72-.26l3.15-1.29c.5-.2.78-.48.82-.78L107,148.55c-.05.3-.32.58-.82.78l-3.15,1.29a4.23,4.23,0,0,1-1.73.26Z" style="fill:#f0f0f0"></path><g id="freepik--Vase--inject-45"><path d="M84.74,151.69c2.94,1.7,2.94,4.44,0,6.14a11.78,11.78,0,0,1-10.63,0c-2.93-1.7-2.93-4.44,0-6.14A11.78,11.78,0,0,1,84.74,151.69Z" style="fill:#e0e0e0"></path><path d="M83.78,131.73l1.8,1a6.09,6.09,0,0,1-2.64-1.4,12.94,12.94,0,0,1,.52-3.47,41.35,41.35,0,0,0,1.4-5.27l.83-.64c.25,1.68-.83,4.25-1.4,6.38A12.57,12.57,0,0,0,83.78,131.73Z" style="fill:#e0e0e0"></path><path d="M87,122.46c-.09,2.13-3.12,9-1.41,10.22l-1.8-1a12.57,12.57,0,0,1,.51-3.45c.57-2.13,1.65-4.7,1.4-6.38l-.83.64-4,3.07L81,124l5-3.87a.52.52,0,0,1,.56,0l.06,0s0,0,.06.06a.41.41,0,0,1,.07.11A5.06,5.06,0,0,1,87,122.46Z" style="fill:#ebebeb"></path><path d="M86.52,120.09a.52.52,0,0,0-.56,0L81,124l-.09,1.62-.83-.47.09-1.63,5-3.86a.47.47,0,0,1,.56,0C85.77,119.66,86.3,120,86.52,120.09Z" style="fill:#f5f5f5"></path><path d="M83.78,153.86c0-3,6.66-5.64,6.66-13.1,0-6.28-5.41-8.38-6.93-9.16s-2.18-1.75-2.18-2.58V121.8a3.73,3.73,0,0,1,1.36-3.25H76.16a3.71,3.71,0,0,1,1.37,3.25V129c0,.83-.67,1.81-2.19,2.58s-6.93,2.88-6.93,9.16c0,7.46,6.67,10.08,6.67,13.1h0a2.16,2.16,0,0,0,1.27,1.78,6.8,6.8,0,0,0,6.15,0,2.16,2.16,0,0,0,1.28-1.78Z" style="fill:#f0f0f0"></path><path d="M82.32,115.47c1.59.93,1.59,2.42,0,3.34a6.4,6.4,0,0,1-5.78,0c-1.59-.92-1.59-2.41,0-3.34A6.4,6.4,0,0,1,82.32,115.47Z" style="fill:#fafafa"></path><path d="M79.43,115a5.63,5.63,0,0,1,2.76.66,1.52,1.52,0,0,1,0,2.9,6.1,6.1,0,0,1-5.52,0,1.51,1.51,0,0,1,0-2.9,5.63,5.63,0,0,1,2.76-.66m0-.25a5.91,5.91,0,0,0-2.89.69c-1.59.93-1.59,2.42,0,3.34a6.4,6.4,0,0,0,5.78,0c1.59-.92,1.59-2.41,0-3.34a5.94,5.94,0,0,0-2.89-.69Z" style="fill:#e6e6e6"></path><path d="M81.58,116.06c1.19.6,1.19,1.56,0,2.16a5.44,5.44,0,0,1-4.3,0c-1.19-.6-1.19-1.56,0-2.16A5.44,5.44,0,0,1,81.58,116.06Z" style="fill:#e0e0e0"></path><path d="M90.22,138.69a6.25,6.25,0,0,1-3,3.27,17.18,17.18,0,0,1-15.58,0,6.32,6.32,0,0,1-3-3.27,9.59,9.59,0,0,0-.22,2.07,11,11,0,0,0,.49,3.31,7.57,7.57,0,0,0,2.5,2.18c4.43,2.56,11.62,2.56,16.06,0A7.57,7.57,0,0,0,90,144a11.1,11.1,0,0,0,.47-3.28A9.59,9.59,0,0,0,90.22,138.69Z" style="fill:#e0e0e0"></path></g><polygon points="55.65 125.63 72.22 135.2 72.22 166.71 55.65 157.14 55.65 125.63" style="fill:#e0e0e0"></polygon><path d="M71.68,135.72l-16-9.2a6.73,6.73,0,0,1-3.66,2l15.89,9.16A15.88,15.88,0,0,0,71.68,135.72Z" style="fill:#fff"></path><path d="M66.34,137.63a3.41,3.41,0,0,0,3.08,0l2.7-1.55a.93.93,0,0,0,0-1.77l-15.8-9.06-.67.38,15.54,9c.51.3.51.77,0,1.06l-2.51,1.43a2.08,2.08,0,0,1-1.85,0l-15.53-9-.76.43Z" style="fill:#fafafa"></path><path d="M50.55,128.56v31.51l15.79,9.07a3.41,3.41,0,0,0,3.08,0l2.7-1.55a1.06,1.06,0,0,0,.64-.88V135.2a1.06,1.06,0,0,1-.64.88l-2.7,1.55a3.41,3.41,0,0,1-3.08,0Z" style="fill:#e0e0e0"></path><path d="M67.88,138a3.08,3.08,0,0,0,1.54-.37l2.7-1.55a1.06,1.06,0,0,0,.64-.88v31.51a1.06,1.06,0,0,1-.64.88l-2.7,1.55a3.19,3.19,0,0,1-1.54.37Z" style="fill:#f0f0f0"></path><polygon points="48.88 129.52 65.44 139.09 65.44 170.6 48.88 161.03 48.88 129.52" style="fill:#ebebeb"></polygon><path d="M64.91,139.61l-16-9.2a6.73,6.73,0,0,1-3.66,2l15.89,9.16A16,16,0,0,0,64.91,139.61Z" style="fill:#fff"></path><path d="M59.57,141.52a3.41,3.41,0,0,0,3.08,0l2.7-1.55a.93.93,0,0,0,0-1.77l-15.8-9.06-.67.38,15.54,9a.56.56,0,0,1,0,1.06L61.91,141a2,2,0,0,1-1.85,0L44.53,132l-.76.43Z" style="fill:#fafafa"></path><path d="M43.77,132.45V164L59.57,173a3.41,3.41,0,0,0,3.08,0l2.7-1.55a1.09,1.09,0,0,0,.64-.88V139.09a1.08,1.08,0,0,1-.64.88l-2.7,1.55a3.41,3.41,0,0,1-3.08,0Z" style="fill:#e0e0e0"></path><path d="M61.11,141.89a3.11,3.11,0,0,0,1.54-.37l2.7-1.55a1.08,1.08,0,0,0,.64-.88V170.6a1.09,1.09,0,0,1-.64.88L62.65,173a3.21,3.21,0,0,1-1.54.36Z" style="fill:#f0f0f0"></path><polygon points="42.19 136.2 58.75 145.77 53.61 178.23 37.05 168.67 42.19 136.2" style="fill:#ebebeb"></polygon><path d="M58.1,146.22l-16-9.2a8.88,8.88,0,0,1-4.26,1.66l15.89,9.16A21.11,21.11,0,0,0,58.1,146.22Z" style="fill:#fff"></path><path d="M52,147.71a4.28,4.28,0,0,0,3.34.15l3.15-1.29c1-.4,1.11-1.13.26-1.61L43,135.88l-.78.32,15.54,9c.51.29.44.72-.16,1l-2.92,1.18a2.63,2.63,0,0,1-2-.09l-15.53-9-.89.36Z" style="fill:#fafafa"></path><path d="M36.23,138.64,31.08,171.1l15.81,9.07a4.28,4.28,0,0,0,3.34.15L53.38,179c.49-.21.77-.49.82-.78l5.14-32.46c0,.29-.32.57-.82.77l-3.15,1.29a4.28,4.28,0,0,1-3.34-.15Z" style="fill:#e0e0e0"></path><path d="M53.65,148.12a4,4,0,0,0,1.72-.26l3.15-1.29c.5-.2.78-.48.82-.77L54.2,178.26c-.05.29-.33.57-.82.78l-3.15,1.28a4.07,4.07,0,0,1-1.73.26Z" style="fill:#f0f0f0"></path></g><g id="freepik--shelf--inject-45"><polygon points="121.72 83.74 93.49 67.44 19.14 110.32 19.14 113.42 47.37 129.72 121.72 86.84 121.72 83.74" style="fill:#ebebeb"></polygon><polygon points="47.37 126.62 121.72 83.74 93.49 67.44 19.14 110.32 47.37 126.62" style="fill:#fafafa"></polygon><polygon points="47.37 126.62 47.37 129.72 19.14 113.42 19.14 110.32 47.37 126.62" style="fill:#e6e6e6"></polygon><polygon points="97.82 37.58 116.13 48.16 116.13 82.98 97.82 72.41 97.82 37.58" style="fill:#ebebeb"></polygon><path d="M115.54,48.73,97.82,38.57a7.42,7.42,0,0,1-4,2.21l17.57,10.13A17.75,17.75,0,0,0,115.54,48.73Z" style="fill:#fff"></path><path d="M109.64,50.85a3.77,3.77,0,0,0,3.4,0l3-1.72a1,1,0,0,0,0-2l-17.47-10-.74.42L115,47.5a.62.62,0,0,1,0,1.17l-2.78,1.57a2.23,2.23,0,0,1-2,0L93,40.34l-.83.48Z" style="fill:#fafafa"></path><path d="M92.18,40.82V75.65l17.46,10a3.77,3.77,0,0,0,3.4,0L116,84a1.2,1.2,0,0,0,.7-1V48.15a1.2,1.2,0,0,1-.7,1l-3,1.72a3.77,3.77,0,0,1-3.4,0Z" style="fill:#e0e0e0"></path><path d="M111.34,51.25a3.47,3.47,0,0,0,1.7-.4l3-1.72a1.2,1.2,0,0,0,.7-1V83a1.2,1.2,0,0,1-.7,1l-3,1.71a3.48,3.48,0,0,1-1.7.41Z" style="fill:#f0f0f0"></path><polygon points="90.72 43.63 109.02 54.2 103.33 90.08 85.03 79.51 90.72 43.63" style="fill:#ebebeb"></polygon><path d="M108.3,54.71,90.57,44.53a9.71,9.71,0,0,1-4.71,1.83l17.57,10.13A23.93,23.93,0,0,0,108.3,54.71Z" style="fill:#fff"></path><path d="M101.59,56.35a4.75,4.75,0,0,0,3.69.17l3.48-1.43c1.1-.44,1.23-1.24.29-1.78l-17.47-10-.87.35,17.18,9.92c.56.32.49.8-.17,1.07l-3.24,1.31a2.86,2.86,0,0,1-2.21-.1L85.1,45.93l-1,.4Z" style="fill:#fafafa"></path><path d="M84.12,46.33,78.43,82.21l17.47,10a4.8,4.8,0,0,0,3.69.17L103.08,91c.55-.22.85-.53.9-.86l5.69-35.88c0,.33-.36.64-.9.86l-3.49,1.43a4.75,4.75,0,0,1-3.69-.17Z" style="fill:#e0e0e0"></path><path d="M103.38,56.81a4.71,4.71,0,0,0,1.9-.29l3.49-1.43c.54-.22.85-.53.9-.86L104,90.11c0,.33-.35.64-.9.86L99.59,92.4a4.66,4.66,0,0,1-1.9.28Z" style="fill:#f0f0f0"></path><g id="freepik--Picture--inject-45"><g id="freepik--Frame--inject-45"><polygon points="61.02 104.38 62.12 104.91 82.58 93.1 81.47 92.56 61.02 104.38" style="fill:#fafafa"></polygon><polygon points="81.47 92.56 62.02 103.8 59.18 74.69 78.64 63.47 81.47 92.56" style="fill:#fff"></polygon><path d="M81.32,59.74l-24.22,14,3.34,34.33,24.22-14ZM82.58,93.1,62.12,104.91,59.18,74.69,79.64,62.88Z" style="fill:#f0f0f0"></path><polygon points="82.58 93.1 81.47 92.56 78.64 63.47 79.64 62.88 82.58 93.1" style="fill:#e0e0e0"></polygon><polygon points="81.32 59.74 80.2 59.22 55.98 73.2 57.1 73.72 81.32 59.74" style="fill:#fafafa"></polygon><polygon points="55.98 73.2 57.1 73.72 60.44 108.05 59.32 107.53 55.98 73.2" style="fill:#e0e0e0"></polygon></g><g id="freepik--Land--inject-45"><polygon points="80.62 92.01 62.68 102.37 62.2 97.47 65.54 83.06 68.72 87.98 68.06 92.12 73.36 76.83 80.14 87.11 80.62 92.01" style="fill:#f0f0f0"></polygon><path d="M65.26,77a2.51,2.51,0,0,0-1.18,2.21c.07.8.73,1.11,1.46.69a2.51,2.51,0,0,0,1.19-2.22C66.65,76.88,66,76.57,65.26,77Z" style="fill:#f0f0f0"></path></g></g><g id="freepik--vase--inject-45"><path d="M52.53,104.91c4.84,2.79,4.84,7.32,0,10.12S39.85,117.82,35,115s-4.83-7.33,0-10.12S47.69,102.12,52.53,104.91Z" style="fill:#e0e0e0"></path><path d="M56.13,98.72c1.8-6.07,3.4-17.66,2.7-21.56s-5.22-5.32-5.55-6.27h-19c-.32,1-4.85,2.37-5.55,6.27s.91,15.49,2.7,21.56a49.06,49.06,0,0,0,5.41,11.39,5.09,5.09,0,0,0,1.73,1.77,10.56,10.56,0,0,0,10.44,0,5.58,5.58,0,0,0,1.42-1.28h0a3.74,3.74,0,0,0,.32-.49A49.56,49.56,0,0,0,56.13,98.72Z" style="fill:#f5f5f5"></path><path d="M56.13,98.71a49.48,49.48,0,0,1-5.4,11.4,4.55,4.55,0,0,1-.32.49A5.4,5.4,0,0,1,49,111.88a10.56,10.56,0,0,1-10.44,0,4.92,4.92,0,0,1-1.73-1.77,49.4,49.4,0,0,1-5.41-11.4c-1.79-6.07-3.39-17.65-2.7-21.55a5.89,5.89,0,0,1,.54-1.58c-.77,2.9.59,6,4.1,8.24,5.76,3.67,15.09,3.67,20.84,0,3.5-2.24,4.87-5.32,4.11-8.22a5.22,5.22,0,0,1,.53,1.56C59.53,81.06,57.93,92.64,56.13,98.71Z" style="fill:#ebebeb"></path><path d="M36.94,76.33l.68-5.44H34.26c-.32,1-4.85,2.37-5.55,6.27s.91,15.49,2.7,21.56a49.06,49.06,0,0,0,5.41,11.39,5.09,5.09,0,0,0,1.73,1.77,10.72,10.72,0,0,0,9.26.61c-3.21.56-7.4-.52-10.24-5.52-3-5.33-5.44-20.39-5.44-24.61S35,77.67,36.94,76.33Z" style="opacity:0.1"></path><path d="M50.6,67.61c3.77,2.41,3.77,6.31,0,8.72a13.81,13.81,0,0,1-13.66,0c-3.77-2.41-3.77-6.31,0-8.72A13.81,13.81,0,0,1,50.6,67.61Z" style="fill:#fafafa"></path><path d="M43.77,66.25A12.36,12.36,0,0,1,50.36,68,4.9,4.9,0,0,1,53,72a4.9,4.9,0,0,1-2.62,4,12.36,12.36,0,0,1-6.59,1.74A12.35,12.35,0,0,1,37.19,76a4.9,4.9,0,0,1-2.62-4,4.9,4.9,0,0,1,2.62-4,12.35,12.35,0,0,1,6.58-1.74m0-.45a12.86,12.86,0,0,0-6.83,1.81c-3.77,2.41-3.77,6.31,0,8.72a12.86,12.86,0,0,0,6.83,1.81,12.84,12.84,0,0,0,6.83-1.81c3.77-2.41,3.77-6.31,0-8.72a12.84,12.84,0,0,0-6.83-1.81Z" style="fill:#e6e6e6"></path><path d="M49,69c2.88,1.66,2.88,4.36,0,6a11.5,11.5,0,0,1-10.44,0c-2.88-1.66-2.88-4.36,0-6A11.5,11.5,0,0,1,49,69Z" style="fill:#e0e0e0"></path><path d="M49,72.46a11.57,11.57,0,0,0-10.44,0,5.39,5.39,0,0,0-1.48,1.26A5.07,5.07,0,0,0,38.55,75,11.5,11.5,0,0,0,49,75a5,5,0,0,0,1.49-1.26A5.29,5.29,0,0,0,49,72.46Z" style="opacity:0.1"></path></g></g></g></g><g id="freepik--Window--inject-45"><g id="freepik--window--inject-45"><g id="freepik--window--inject-45"><g id="freepik--frame--inject-45"><polygon points="467.03 241.69 464.5 243.2 378.65 193.63 381.17 192.12 467.03 241.69" style="fill:#fafafa"></polygon><polygon points="381.17 192.12 464.5 240.23 464.5 100.81 381.17 52.73 381.17 192.12" style="fill:#fff"></polygon><path d="M373.89,196.38l95.38,55.07V98.07L373.88,43Zm4.76-145.13,85.85,49.56V243.2l-85.85-49.57Z" style="fill:#f0f0f0"></path><polygon points="378.65 193.63 381.17 192.12 381.17 52.73 378.65 51.25 378.65 193.63" style="fill:#e0e0e0"></polygon><polygon points="464.5 199.63 464.5 202.59 378.65 153.02 381.17 151.52 464.5 199.63" style="fill:#fafafa"></polygon><polygon points="464.5 132.98 464.5 135.94 378.65 86.37 381.17 84.86 464.5 132.98" style="fill:#fafafa"></polygon><polygon points="373.88 43 376.45 41.53 471.83 96.6 469.27 98.06 373.88 43" style="fill:#fafafa"></polygon><polygon points="471.83 96.6 469.27 98.06 469.27 251.45 471.83 249.98 471.83 96.6" style="fill:#e0e0e0"></polygon><polygon points="427.78 79.61 425.22 78.14 425.22 220.53 427.78 219.06 427.78 79.61" style="fill:#e0e0e0"></polygon></g><polygon points="420.46 75.4 425.22 78.14 425.22 220.53 420.46 217.77 420.46 75.4" style="fill:#f0f0f0"></polygon><polygon points="373.88 83.62 373.88 89.11 469.27 144.18 469.27 138.69 373.88 83.62" style="fill:#f0f0f0"></polygon><polygon points="373.88 150.26 373.88 155.75 469.27 210.82 469.27 205.33 373.88 150.26" style="fill:#f0f0f0"></polygon><polygon points="425.22 113.26 427.78 111.78 464.5 132.98 464.5 135.94 425.22 113.26" style="fill:#fafafa"></polygon><polygon points="425.22 179.88 427.78 178.4 464.5 199.6 464.5 202.56 425.22 179.88" style="fill:#fafafa"></polygon></g></g></g><g id="freepik--Pictures--inject-45"><g id="freepik--picture--inject-45"><g id="freepik--frame--inject-45"><polygon points="356.71 146.52 355.04 147.51 320.89 127.79 322.55 126.8 356.71 146.52" style="fill:#fafafa"></polygon><polygon points="322.55 126.8 355.04 145.55 355.04 111.52 322.55 92.78 322.55 126.8" style="fill:#fff"></polygon><path d="M317.75,129.6,358.19,153V109.71L317.75,86.36Zm3.14-37.8L355,111.52v36l-34.15-19.72Z" style="fill:#f0f0f0"></path><polygon points="320.89 127.79 322.55 126.8 322.55 92.78 320.89 91.8 320.89 127.79" style="fill:#e0e0e0"></polygon><polygon points="317.75 86.36 319.44 85.4 359.88 108.74 358.19 109.71 317.75 86.36" style="fill:#fafafa"></polygon><polygon points="359.88 108.74 358.19 109.71 358.19 152.95 359.88 151.98 359.88 108.74" style="fill:#e0e0e0"></polygon></g><g id="freepik--land--inject-45"><polygon points="323.82 125.78 353.77 143.07 353.77 134.43 346.29 117.13 341.62 121.45 343.3 128.7 332.95 106.58 323.82 117.13 323.82 125.78" style="fill:#f0f0f0"></polygon><path d="M341.9,108.78a4.88,4.88,0,0,1,2.22,3.84c0,1.41-1,2-2.22,1.28a4.92,4.92,0,0,1-2.21-3.84C339.69,108.65,340.68,108.07,341.9,108.78Z" style="fill:#f0f0f0"></path></g></g><g id="freepik--picture--inject-45"><g id="freepik--frame--inject-45"><polygon points="356.71 88.34 355.04 89.33 320.89 69.61 322.55 68.62 356.71 88.34" style="fill:#fafafa"></polygon><polygon points="322.55 68.62 355.04 87.38 355.04 53.35 322.55 34.61 322.55 68.62" style="fill:#fff"></polygon><path d="M317.75,71.43l40.43,23.34V51.54L317.75,28.19Zm3.14-37.8L355,53.35v36L320.89,69.61Z" style="fill:#f0f0f0"></path><polygon points="320.89 69.61 322.55 68.62 322.55 34.61 320.89 33.63 320.89 69.61" style="fill:#e0e0e0"></polygon><polygon points="317.75 28.19 319.44 27.22 359.88 50.57 358.19 51.54 317.75 28.19" style="fill:#fafafa"></polygon><polygon points="359.88 50.57 358.19 51.54 358.19 94.77 359.88 93.81 359.88 50.57" style="fill:#e0e0e0"></polygon></g><g id="freepik--land--inject-45"><polygon points="323.82 67.6 353.77 84.9 353.77 76.25 346.29 58.96 341.62 63.28 343.3 70.53 332.95 48.41 323.82 58.96 323.82 67.6" style="fill:#f0f0f0"></polygon><path d="M341.9,50.61a4.87,4.87,0,0,1,2.22,3.83c0,1.42-1,2-2.22,1.28a4.88,4.88,0,0,1-2.21-3.84C339.69,50.47,340.68,49.9,341.9,50.61Z" style="fill:#f0f0f0"></path></g></g></g><g id="freepik--Shadows--inject-45"><path id="freepik--Shadow--inject-45" d="M93.2,362.18c12.55,7.33,12.55,19.22,0,26.55s-32.91,7.33-45.47,0-12.55-19.22,0-26.55S80.64,354.85,93.2,362.18Z" style="fill:#e0e0e0"></path><ellipse id="freepik--shadow--inject-45" cx="207.86" cy="442.14" rx="58.51" ry="33.78" style="fill:#e0e0e0"></ellipse><ellipse id="freepik--shadow--inject-45" cx="161.32" cy="415.22" rx="83.99" ry="48.49" style="fill:#e0e0e0"></ellipse><path id="freepik--shadow--inject-45" d="M302.84,438.33,196.65,377c-1.49-.86-1.49-2.26,0-3.12l129.18-74.67a6,6,0,0,1,5.39,0l106.2,61.33c1.49.86,1.49,2.26,0,3.12L308.24,438.33A6,6,0,0,1,302.84,438.33Z" style="fill:#e0e0e0"></path></g><g id="freepik--Plant--inject-45"><g id="freepik--plant--inject-45"><g id="freepik--Pot--inject-45"><path d="M51.18,379.8c-10.32-10.65-16.38-37.56-6.32-46H96.07c10.06,8.44,4,35.33-6.3,46l-.29.29-.35.35q-.43.44-.93.84l-.25.2c-.25.2-.5.4-.78.59a13,13,0,0,1-1.33.86c-8.49,5-22.25,5-30.74,0h0a13.39,13.39,0,0,1-1.35-.87c-.25-.18-.48-.36-.72-.55l-.31-.24c-.32-.27-.61-.54-.9-.81l-.41-.41Z" style="fill:#ebebeb"></path><path d="M91.62,330.4c11.69,6.82,11.69,17.88,0,24.7s-30.62,6.82-42.31,0-11.68-17.88,0-24.7S79.94,323.58,91.62,330.4Z" style="fill:#fafafa"></path><path d="M86,333.68c8.59,5,8.58,13.13,0,18.14s-22.49,5-31.07,0-8.58-13.13,0-18.14S77.42,328.67,86,333.68Z" style="fill:#ebebeb"></path><path d="M54.93,342.29c8.58-5,22.49-5,31.07,0a14.32,14.32,0,0,1,5.14,4.76A14.25,14.25,0,0,1,86,351.82c-8.58,5-22.49,5-31.07,0a14.33,14.33,0,0,1-5.14-4.77A14.4,14.4,0,0,1,54.93,342.29Z" style="fill:#fff"></path></g><path d="M63.46,293.06c-3.46,4.37-13.84,6.29-19-4.41-4.85-10-10-19.5-11.53-23.2S35,260.21,35,260.21s-.14-5.71,9.79-2.59S62,266.06,66.9,275.19,69.81,291.3,63.46,293.06Z" style="fill:#f0f0f0"></path><path d="M68.74,307.32a50.13,50.13,0,0,0-1.28-5.68,77.83,77.83,0,0,0-4-10.86A81.63,81.63,0,0,0,50.69,271a70.25,70.25,0,0,0-9.53-9.28c-.1-.08-.16.14-.09.21a87.69,87.69,0,0,1,15.18,17.93,88.63,88.63,0,0,1,9.59,20.92c.63,2.06,1.25,4.13,1.79,6.22s1,4.27,1.47,6.39c.06.21.4.32.39,0A40.92,40.92,0,0,0,68.74,307.32Z" style="fill:#e0e0e0"></path><path d="M68.74,307.32a50.13,50.13,0,0,0-1.28-5.68,77.83,77.83,0,0,0-4-10.86A81.63,81.63,0,0,0,50.69,271a70.25,70.25,0,0,0-9.53-9.28c-.1-.08-.16.14-.09.21a87.69,87.69,0,0,1,15.18,17.93,88.63,88.63,0,0,1,9.59,20.92c.63,2.06,1.25,4.13,1.79,6.22s1,4.27,1.47,6.39c.06.21.4.32.39,0A40.92,40.92,0,0,0,68.74,307.32Z" style="opacity:0.1"></path><path d="M74.72,285.4c-9,2.78-15.71-4.25-13.39-15.28s13.9-23.28,18.28-20c2.73-2.73,8.75-1.75,11.59,7.21S91.45,289.3,74.72,285.4Z" style="fill:#e0e0e0"></path><path d="M80,256.84a122,122,0,0,0-6,19.82,197,197,0,0,0-3.48,20.75c-1.61,13.48-1.89,12.73-1.8,26.29,0,3.76.08,7.51.15,11.26s0,7.77.34,11.61c.13,1.48,2.23,1.09,2.25-.27.13-6.75-.24-13.53-.3-20.29s0,1,.12-5.67a281.92,281.92,0,0,1,3.65-40.61c.64-3.74,1.35-7.47,2.23-11.17.91-3.88,2-7.71,3.06-11.57C80.27,256.84,80.09,256.64,80,256.84Z" style="fill:#e0e0e0"></path><path d="M80,256.84a122,122,0,0,0-6,19.82,197,197,0,0,0-3.48,20.75c-1.61,13.48-1.89,12.73-1.8,26.29,0,3.76.08,7.51.15,11.26s0,7.77.34,11.61c.13,1.48,2.23,1.09,2.25-.27.13-6.75-.24-13.53-.3-20.29s0,1,.12-5.67a281.92,281.92,0,0,1,3.65-40.61c.64-3.74,1.35-7.47,2.23-11.17.91-3.88,2-7.71,3.06-11.57C80.27,256.84,80.09,256.64,80,256.84Z" style="opacity:0.1"></path><path d="M53.86,315.21c-1.15,5.83-9.15,10-18.38,6.22S8,293.61,16.36,291c-.46-4.35,24.7-7.93,37.14,7.4C62.54,309.51,53.86,315.21,53.86,315.21Z" style="fill:#e0e0e0"></path><path d="M67.06,323.87a40.74,40.74,0,0,0-3.75-4.13q-4.05-4-8.47-7.58a114.53,114.53,0,0,0-19.48-12.52,102,102,0,0,0-11.76-5.35c-.11,0-.07.18,0,.21,3.36,1.59,6.72,3.13,10,4.94s6.62,4,9.78,6.17a141.47,141.47,0,0,1,17.19,14.08c1.52,1.45,3,3,4.5,4.43s3.31,2.88,4.83,4.45c.22.23.62.12.38-.21C69.17,326.88,68.19,325.32,67.06,323.87Z" style="fill:#e0e0e0"></path><path d="M67.06,323.87a40.74,40.74,0,0,0-3.75-4.13q-4.05-4-8.47-7.58a114.53,114.53,0,0,0-19.48-12.52,102,102,0,0,0-11.76-5.35c-.11,0-.07.18,0,.21,3.36,1.59,6.72,3.13,10,4.94s6.62,4,9.78,6.17a141.47,141.47,0,0,1,17.19,14.08c1.52,1.45,3,3,4.5,4.43s3.31,2.88,4.83,4.45c.22.23.62.12.38-.21C69.17,326.88,68.19,325.32,67.06,323.87Z" style="opacity:0.1"></path><path d="M76.66,325.79c-4.83-2.13-3.91-8.26,3.85-14.49s24.31-6.41,24.46-3.12c3.54.68,1.4,11.77-8.4,20.44S75.82,332.72,76.66,325.79Z" style="fill:#e0e0e0"></path><path d="M88.66,316.86a40.71,40.71,0,0,0-18.28,16.07c-.25.4.38,1.18.65.74A47.4,47.4,0,0,1,88.67,317S88.74,316.82,88.66,316.86Z" style="fill:#e0e0e0"></path><path d="M88.66,316.86a40.71,40.71,0,0,0-18.28,16.07c-.25.4.38,1.18.65.74A47.4,47.4,0,0,1,88.67,317S88.74,316.82,88.66,316.86Z" style="opacity:0.1"></path><path d="M77.66,336.45c-5.61,5.51.59,12.33,9.68,15.71s19.14,1.09,23.53-1.1,5.29-3.28,5.29-3.28-2.15-7.23-4.64-11.13a23.32,23.32,0,0,0-22.93-10.53C77,327.61,76,332.44,77.66,336.45Z" style="fill:#f0f0f0"></path><path d="M101.18,340.59c-4.56-2.2-9.25-4.32-14.25-5.28s-10.87-1-14.82,2.49c-1.53,1.35-3.56,4.27-2.32,6.33.13.21.74.59.88.18a19.72,19.72,0,0,1,1.25-3.83,7.84,7.84,0,0,1,3-2.86,18.09,18.09,0,0,1,10.33-1.75c5.55.53,10.77,2.75,15.88,4.85C101.23,340.74,101.23,340.61,101.18,340.59Z" style="fill:#e0e0e0"></path><path d="M101.18,340.59c-4.56-2.2-9.25-4.32-14.25-5.28s-10.87-1-14.82,2.49c-1.53,1.35-3.56,4.27-2.32,6.33.13.21.74.59.88.18a19.72,19.72,0,0,1,1.25-3.83,7.84,7.84,0,0,1,3-2.86,18.09,18.09,0,0,1,10.33-1.75c5.55.53,10.77,2.75,15.88,4.85C101.23,340.74,101.23,340.61,101.18,340.59Z" style="opacity:0.1"></path><path d="M79.19,301.76c-1.4,4.92,4.89,9.52,12.71,6.89s15.94-5.08,22.61-5.16S125.4,299,124,296.06s-3-10-20-12-24.64,4-28.19,8.67S76.36,302.58,79.19,301.76Z" style="fill:#f0f0f0"></path><path d="M110.75,291.41a21,21,0,0,0-5.48-.51,34.64,34.64,0,0,0-5.29.44,41.43,41.43,0,0,0-10,3.1c-6,2.65-11.9,6.11-15.78,11.48a38.29,38.29,0,0,0-5,9.36c-.23.63,1,1,1.28.42a69.85,69.85,0,0,1,4.24-8.14,25.3,25.3,0,0,1,6.51-6.78,51.72,51.72,0,0,1,18-8.24,36.09,36.09,0,0,1,5.75-.85,55.73,55.73,0,0,1,5.78.22C111.05,291.92,110.93,291.45,110.75,291.41Z" style="fill:#e0e0e0"></path><path d="M110.75,291.41a21,21,0,0,0-5.48-.51,34.64,34.64,0,0,0-5.29.44,41.43,41.43,0,0,0-10,3.1c-6,2.65-11.9,6.11-15.78,11.48a38.29,38.29,0,0,0-5,9.36c-.23.63,1,1,1.28.42a69.85,69.85,0,0,1,4.24-8.14,25.3,25.3,0,0,1,6.51-6.78,51.72,51.72,0,0,1,18-8.24,36.09,36.09,0,0,1,5.75-.85,55.73,55.73,0,0,1,5.78.22C111.05,291.92,110.93,291.45,110.75,291.41Z" style="opacity:0.1"></path><path d="M65.27,329.52c-1.33-5.07-7.75-7.91-16.14-8.53A21.93,21.93,0,0,0,28.26,331.7c-4.39,7.5-6.22,13.48-3.55,14.46s13.94,2.54,21.22,3.19,16.37-.66,22.31-6.2S72.22,330.68,65.27,329.52Z" style="fill:#e0e0e0"></path><path d="M65.58,328.85a22,22,0,0,0-9.06-.42,40,40,0,0,0-8.56,2,55,55,0,0,0-8.47,3.81c-1.42.78-2.82,1.6-4.18,2.47a32.24,32.24,0,0,0-3.76,2.6s0,.21.05.17c1.38-.61,2.67-1.48,4-2.22s2.85-1.58,4.31-2.32a59.49,59.49,0,0,1,8.39-3.56,40,40,0,0,1,8.9-1.91,53.63,53.63,0,0,1,8.5.22C66.26,329.7,65.93,329,65.58,328.85Z" style="fill:#e0e0e0"></path><path d="M65.58,328.85a22,22,0,0,0-9.06-.42,40,40,0,0,0-8.56,2,55,55,0,0,0-8.47,3.81c-1.42.78-2.82,1.6-4.18,2.47a32.24,32.24,0,0,0-3.76,2.6s0,.21.05.17c1.38-.61,2.67-1.48,4-2.22s2.85-1.58,4.31-2.32a59.49,59.49,0,0,1,8.39-3.56,40,40,0,0,1,8.9-1.91,53.63,53.63,0,0,1,8.5.22C66.26,329.7,65.93,329,65.58,328.85Z" style="opacity:0.1"></path></g></g><g id="freepik--character-3--inject-45"><g id="freepik--Chartacter--inject-45"><g id="freepik--Bottom--inject-45"><path d="M164.6,381.8l-1.46-19.19,23,3.12S185.52,376.1,185,382c-.29,3.47,4.19,10.07,4.19,10.07s-10.46,5.19-15.91,3.09-9.33-10-9.2-11.53S164.6,381.8,164.6,381.8Z" style="fill:#9e6767"></path><path d="M217.59,414.32c.34,0,.81,3.57-1.09,5.06-2.19,1.72-8.6,4.5-17,3.37s-12.91-3.64-16.23-6.32-8-6.46-11.77-7.3c-3.52-.77-8.52-3.32-9.63-4.36s-.89-5.57-.89-5.57Z" style="fill:#263238"></path><path d="M164.6,381.77a1.33,1.33,0,0,0-1.29,1c-.28,1.25-.61,4.88-1.2,6.93-.81,2.84-1.41,8.69-1,11s7.34,5,11,6.39a47.18,47.18,0,0,1,11.82,7.21c3.9,3.1,12.17,6.39,17.64,6.43,6.49,0,13.82-1.82,15.53-4.6,2.12-3.46,3.69-7.48-5.86-11.78-1.81-.81-8.15-4.44-10.31-5.75-5.84-3.56-9.94-6.8-12.56-13a3.41,3.41,0,0,0-1.35-1.9,3.28,3.28,0,0,0-1.87-.18c-1.6.19-8,.92-9.47,1.55-1.3.56-3.14,1.2-3.13,2.75a4.75,4.75,0,0,0,.34,1.57c.11.32.19.74-.11.93s-.64,0-.89-.25a23.06,23.06,0,0,1-2.55-2.95,27.23,27.23,0,0,0-2.68-2.46c-.51-.39-1.17-.59-1.63-1S164.62,382.49,164.6,381.77Z" style="fill:#455a64"></path><path d="M183.94,414.36c-1.66-1.32-3.42-2.59-5.19-3.73h0s11.21,6.58,15.82,3.73c3-1.84,1.6-4.14,1.54-4.87s10.41-5.74,13.27-6h0c.79.42,1.45.76,1.87,1,9.55,4.3,8,8.32,5.86,11.78-1.71,2.78-7,4.9-15.41,4.79C196.22,420.9,187.84,417.46,183.94,414.36Z" style="fill:#37474f"></path><path d="M195.36,407.34c5.94,2.32,3.37,3.33,1.7,3.53s-11.66-5.44-17.73-10.07C173,396,167.87,389.75,165.52,388c-.88-.66-1.82-1.47-2.66-2.23.18-1.22.32-2.34.45-2.93a1.33,1.33,0,0,1,1.29-1c0,.72-.13,1.39.44,2s1.12.63,1.63,1a27.23,27.23,0,0,1,2.68,2.46,23.06,23.06,0,0,0,2.55,2.95C177,396.42,189.41,405,195.36,407.34Z" style="fill:#37474f"></path><path d="M196.64,410a.64.64,0,0,1-.37-.13.53.53,0,0,1-.07-.78c1.72-1.91,9.78-6.39,14.17-5.87a.55.55,0,0,1,.51.61.57.57,0,0,1-.65.49c-4.1-.47-11.77,4-13.13,5.48A.6.6,0,0,1,196.64,410Z" style="fill:#263238"></path><path d="M191.48,407a.58.58,0,0,1-.38-.13.53.53,0,0,1-.07-.78c1.72-1.9,9.78-6.37,14.17-5.86a.56.56,0,0,1,.52.61.58.58,0,0,1-.66.48c-4.11-.46-11.76,4-13.12,5.49A.58.58,0,0,1,191.48,407Z" style="fill:#263238"></path><path d="M186.3,404.05a.64.64,0,0,1-.37-.13.53.53,0,0,1-.07-.78c1.71-1.91,9.78-6.39,14.17-5.87a.56.56,0,0,1,.51.62.58.58,0,0,1-.66.48c-4.1-.47-11.76,4-13.12,5.48A.61.61,0,0,1,186.3,404.05Z" style="fill:#263238"></path><path d="M181.52,400.73a.58.58,0,0,1-.37-.13.53.53,0,0,1-.07-.78c1.71-1.91,9.79-6.38,14.16-5.87a.57.57,0,0,1,.52.62.58.58,0,0,1-.66.48c-4.1-.46-11.76,4-13.12,5.49A.62.62,0,0,1,181.52,400.73Z" style="fill:#263238"></path><path d="M176.83,397.42a.57.57,0,0,1-.36-.13.52.52,0,0,1-.09-.77c2.36-2.71,10.79-6.43,15.18-5.91a.55.55,0,0,1,.52.61.59.59,0,0,1-.66.48c-3.95-.45-12,3.12-14.12,5.52A.63.63,0,0,1,176.83,397.42Z" style="fill:#263238"></path><path d="M132.11,393.44,136,375.05l-22.46-2.13,0,17.57s-2,6.4-.5,8.62,16.45,4,17.74,2.38S132.11,393.44,132.11,393.44Z" style="fill:#9e6767"></path><path d="M132.15,433.05c-.39,5.65-1.41,9.34-3.7,12.5s-6.6,3.87-10.95,2.56-9.93-4.35-11.16-9.35-1-8.33,0-13.52Z" style="fill:#263238"></path><path d="M113.6,390.5c-1.79,0-1,7.66-2,15.22-1.14,8.1-3.92,11.27-4.93,17.9-1.17,7.58-.72,11,2.3,15.91s13.77,10.25,19.1,4c4.34-5.08,4.54-11.06,4.18-18.75-.38-7.94-.72-13.54-.33-19.51.37-5.72,1.8-10.85.24-11.61-.12.83-.24,1.89-.37,2.71-.1.63-.3,3.72-1.3,3.68a10.49,10.49,0,0,1,0-2.17,2.45,2.45,0,0,0-.49-1.89,8.38,8.38,0,0,0-2.94-1.33c-1.77-.45-4.91-1-6.71-1.24-.89-.14-1.79-.24-2.69-.3a7.82,7.82,0,0,0-2.27.11,1.4,1.4,0,0,0-1,.7,2.31,2.31,0,0,0-.09.87,5.51,5.51,0,0,1-.23,1.56c-.07.22-.25.48-.5.41a.51.51,0,0,1-.3-.49c0-.93.14-1.59.19-2.66,0-.5.12-1.17.13-1.67S113.56,391,113.6,390.5Z" style="fill:#455a64"></path><path d="M107,421.48c-.18,1.09-1.26,8.33,1,9.82,2.43,1.62,3.8-4,3.8-4s5.73-1.11,14.06,2.76c-.43,1.15.84,5.17,3.13,4.52s3.2-9,3.21-9.09c.32,7.37,0,13.16-4.2,18.09-5.33,6.24-16.08.86-19.1-4s-3.47-8.33-2.3-15.91C106.73,422.87,106.87,422.16,107,421.48Z" style="fill:#37474f"></path><path d="M112.47,427.81c0,2.76-3.14,1.59-3.26-2.33s2.34-13,2.34-19.76c.1-9.25.26-15.24,2-15.23a2.81,2.81,0,0,1,0,.29l-.25,3.86c0,.56-.11,1.05-.11,1.65-.06,5.65.36,16.6-.21,21.73A78.07,78.07,0,0,0,112.47,427.81Z" style="fill:#37474f"></path><path d="M124.91,429.87a79.13,79.13,0,0,0,1.75-9.59c.64-5.08,3.19-15.3,4.44-20.79a12.69,12.69,0,0,0,.64-3.11c.12-.76.23-1.73.35-2.53l0-.17c1.12.56.94,4.95.47,7.23s-1.08,4.75-1.66,8c-1.56,6.48-1.31,16.08-2.33,19.81S124.31,432.54,124.91,429.87Z" style="fill:#37474f"></path><path d="M126.05,430.26a1.13,1.13,0,0,1-.24-.08A24.37,24.37,0,0,0,112,427.85a.76.76,0,0,1-.82-.48.55.55,0,0,1,.48-.69,25.68,25.68,0,0,1,14.78,2.5.58.58,0,0,1,.28.81A.66.66,0,0,1,126.05,430.26Z" style="fill:#263238"></path><path d="M127.57,424.36l-.22-.07a30.26,30.26,0,0,0-15.48-2.61.73.73,0,0,1-.79-.5.55.55,0,0,1,.5-.67,31.39,31.39,0,0,1,16.35,2.76.59.59,0,0,1,.31.81A.64.64,0,0,1,127.57,424.36Z" style="fill:#263238"></path><path d="M112.33,416a.69.69,0,0,1-.56-.44.53.53,0,0,1,.42-.71c8.06-1.79,16,2.44,16.33,2.62a.58.58,0,0,1,.28.81.69.69,0,0,1-.9.18c-.08,0-7.79-4.14-15.29-2.46A.66.66,0,0,1,112.33,416Z" style="fill:#263238"></path><path d="M112.81,410.65a.7.7,0,0,1-.55-.43.52.52,0,0,1,.4-.72c8.86-2.12,16.35,2.41,16.66,2.6a.57.57,0,0,1,.22.82.7.7,0,0,1-.92.13c-.06,0-7.27-4.38-15.51-2.41A.76.76,0,0,1,112.81,410.65Z" style="fill:#263238"></path><path d="M113.38,404.64a.73.73,0,0,1-.55-.42.53.53,0,0,1,.39-.73c8.3-2.11,16.44,2.57,16.78,2.77a.59.59,0,0,1,.24.83.69.69,0,0,1-.91.14c-.08,0-7.94-4.56-15.65-2.6A.76.76,0,0,1,113.38,404.64Z" style="fill:#263238"></path><path d="M122.34,205.77c-3.58,44.52-5.75,105.5-5.75,105.5-.32,3.38-2.67,9.16-4.32,25.84-1.75,17.59,1,42.78,1,42.78s12.26,6.32,22,3c0,0,10-37.37,13.46-59,3.14-19.93,7.92-47.78,7.92-47.78l5.82,31.58s-3,16.44-2.68,25.32c.39,10.33,3.84,40.5,3.84,40.5a29.43,29.43,0,0,0,22.48,2.29s8-59.42,8.3-71.85c.64-24.37-.28-67.17-.24-98.61Z" style="fill:#BA68C8"></path><path d="M122.34,205.77c-3.58,44.52-5.75,105.5-5.75,105.5-.32,3.38-2.67,9.16-4.32,25.84-1.75,17.59,1,42.78,1,42.78s12.26,6.32,22,3c0,0,10-37.37,13.46-59,3.14-19.93,7.92-47.78,7.92-47.78l5.82,31.58s-3,16.44-2.68,25.32c.39,10.33,3.84,40.5,3.84,40.5a29.43,29.43,0,0,0,22.48,2.29s8-59.42,8.3-71.85c.64-24.37-.28-67.17-.24-98.61Z" style="fill:#fff;opacity:0.4"></path><path d="M156.65,276.11,163.19,242s11.78-1.7,17.83-7.24c0,0-3.92,7.34-15,10.17l-6.5,31.29,3,31.49Z" style="fill:#BA68C8;opacity:0.5"></path><path d="M113.08,380c2.43,3.32,13.71,6.42,22.42,3.42l1.85-7.57c-6.58,2.1-19.45,1.08-24.8-3.27Z" style="fill:#BA68C8"></path><path d="M163.43,373.58c2.49,3.25,15.18,5.87,23.83,2.63l1.4-6.89c-6.54,2.3-20.36,1.62-25.8-2.56Z" style="fill:#BA68C8"></path></g><g id="freepik--Top--inject-45"><g id="freepik--Arm--inject-45"><path d="M181.66,123.91c10.15,2.54,14.83,6.76,22.32,19,11.13,18.15,14.07,21.56,14.07,21.56s10.94,6.59,15.41,8.92c3.64,1.9,6.92,3.9,10.25,5.09a8,8,0,0,0,4.4.75c2.06-.41,4-1.37,6-2,4.82-1.45,10-1.23,15-1a2.11,2.11,0,0,1,1,.23c2.44,1.49-2.19,4.42-3.44,4.65-2.24.41-8.42.93-3,3,4.88,1.9,10.21,2.13,15.37,2.58.84.07,1.9.34,2,1.18.14,1-1.26,1.49-1.84,2.34.31.54,1.09.52,1.62.84.94.56.82,2,.08,2.86a6.88,6.88,0,0,1-2.88,1.48,2.77,2.77,0,0,0-.95.49,4.57,4.57,0,0,0-.78,1.15,4.94,4.94,0,0,1-5,2.26,2.08,2.08,0,0,0-1-.05,2,2,0,0,0-.7.5c-1.88,1.76-3.14,1.32-5.38,1.16-2.48-.17-4.92-.26-7.38-.64-5.29-.8-11.75-4.11-16.89-5.6-13.49-3.9-22.07-6.37-27.71-8.53s-9.12-3.69-12.53-8.06a316.15,316.15,0,0,1-19.29-27.85S179.14,132,181.66,123.91Z" style="fill:#9e6767"></path></g><path d="M182.22,123.51c9.8,1.62,12.47,4.14,18,12s16,25.34,16,25.34a44.09,44.09,0,0,1-8.89,8.72c-4.89,3.36-11.78,3.77-11.78,3.77l-15.54-19.22Z" style="fill:#37474f"></path><g id="freepik--Chest--inject-45"><g id="freepik--chest--inject-45"><path d="M142.33,120.56c-11.57,2.77-15,4-20.51,5.31,0,0-9.51,9.94-1.89,46.55,1,4.69,1.1,19,1.13,30.52,0,8.17-.07,12.56,0,18.9,0,0,13.1,10.71,45.5,6.93,25.45-3,28.4-11.6,28.4-11.6s-.24-31.87,0-50.8c.27-23.89-1-35.84-12.69-42.86-.91-.51-18.24-2.89-18.24-2.89Z" style="fill:#fafafa"></path><path d="M142.44,121.51l21.47.06c6.37.87,16.73,2.39,17.87,2.79,11.33,6.82,12.45,18.61,12.18,42-.2,17.93,0,47.85,0,50.62-.52,1-4.92,8.2-27.56,10.85a114.92,114.92,0,0,1-13.19.8c-19.73,0-29.37-6-31.25-7.28,0-3.22,0-5.93,0-9,0-2.64,0-5.64,0-9.37,0-13.25-.19-26.14-1.15-30.72-6.84-32.86.34-44,1.5-45.51,1.92-.48,3.59-.94,5.52-1.46,3.29-.9,7.38-2,14.56-3.74m-.11-1c-11.57,2.77-15,4-20.51,5.31,0,0-9.51,9.94-1.89,46.55,1,4.69,1.1,19,1.13,30.52,0,8.17-.07,12.56,0,18.9,0,0,9.46,7.74,32.2,7.74a114.23,114.23,0,0,0,13.3-.81c25.45-3,28.4-11.6,28.4-11.6s-.24-31.87,0-50.8c.27-23.89-1-35.84-12.69-42.86-.91-.51-18.24-2.89-18.24-2.89l-21.65-.06Z" style="fill:#e0e0e0"></path></g></g><g id="freepik--Head--inject-45"><path d="M140.51,111.06c-.75-5.83-6.27-12.11-8.67-17.26-2.31-5-3.64-8.81-3.18-13.38.28-2.7,2.13-6.31,4.17-7-1.92-10.17,5.83-14.54,9.88-15.34a41.72,41.72,0,0,0,5.62-1.33c2.22-.82,2.78-2.56,4.6-4,3.14-2.45,8.25-2.3,10,1.67,2.13-2.53,4.86-2.35,8-1.42a5.39,5.39,0,0,1,3.89,6.26c4.32-2.19,8.08.95,8.37,3.45.21,1.84-.24,3.37.9,5.06,1.27,1.91,3.83,2,4.66.51.34,2.62-.76,4.57-3.58,4.31a5.91,5.91,0,0,1,.54,5c-.76,2.29-2.81,3.94-4.69,3.9a8.57,8.57,0,0,1-1.75,3.55,9.48,9.48,0,0,1-3.45,2.87c-4.36,1.86-9.11,2.34-13.75,3.11l-5.52.91c-.32,0-2,.09-2.18.36Z" style="fill:#263238"></path><path d="M133.79,103.29c4,2.58,6.09.09,6.1.08-.42.37-.59,17.39-.59,17.43,0,1.41,1.3,3.41,2.1,4.49a14.89,14.89,0,0,0,5.31,4.47c2.39,1.2,5.1,1.75,7.32,3.24,2.93,2,4.59,5.29,6.73,8.1.51.67,1.44,1.38,2.1.85a1.5,1.5,0,0,0,.42-.72c.88-2.76-.25-5.62-.23-8.41,0-2.15,1.72-3.89,1.78-6a11.08,11.08,0,0,0-1.2-4.41l0-4.79a57.62,57.62,0,0,0,6.78-.07,11.63,11.63,0,0,0,10-8.48,51.17,51.17,0,0,0,1.33-19.47,17,17,0,0,1-.05-4.78c.6-4.21-.06-6.69-1-10.29-4.83-4.22-16.68-6.42-27.72-.3,1,6.46-1.7,11.44-6.46,13.7.14,1.74.18,6.12-2.66,5.93-2-.14-2.08-2.72-4.09-5.07s-6.91-3.15-8.95.11C127.94,93.49,129.44,100.44,133.79,103.29Z" style="fill:#9e6767"></path><path d="M163.65,117.64c-7.17-1.14-12.74-2.18-16.28-7.55a45.09,45.09,0,0,1-4-8.71s.48,6.41,2.66,10.83c1.68,3.4,6.35,6.87,17.61,8.29Z" style="fill:#874c4c"></path><path d="M182.09,97.39c-.16.94-2.5,3.3-8.91,1.82-4.9-1.12-7.87-.83-12.22-.2-5.79.85-10.87,1.56-12.64-2S146.48,88,146.48,88l-5.94,2s.6,5.09.88,7.72.28,9.06,5,14,9.72,6.23,16.38,6.73c9.38.72,14.72-.77,17.25-6.23S182.09,97.39,182.09,97.39Z" style="fill:#263238"></path><path d="M166.51,101c3.9,0,7,.63,7.13,2.57s.17,6-3.23,7.26c-3.19,1.23-2.8-2.29-4.4-2.43s-1.92,3.65-4.82,2c-2.14-1.22-2.05-5.83-1.91-7.07C159.48,101.47,161.91,101,166.51,101Z" style="fill:#9e6767"></path><path d="M163,88a2.13,2.13,0,1,1-2.12-2.22A2.16,2.16,0,0,1,163,88Z" style="fill:#263238"></path><path d="M161.09,81.42l-4.63,1.77a2.6,2.6,0,0,1,1.48-3.28A2.41,2.41,0,0,1,161.09,81.42Z" style="fill:#263238"></path><path d="M162.72,102.21l6.65,1.49a3.58,3.58,0,0,1-4.19,2.64A3.32,3.32,0,0,1,162.72,102.21Z" style="fill:#874c4c"></path><path d="M179.06,84.37,174.69,82a2.39,2.39,0,0,1,3.32-1A2.62,2.62,0,0,1,179.06,84.37Z" style="fill:#263238"></path><path d="M178.28,88.36a2.13,2.13,0,1,1-2-2.33A2.17,2.17,0,0,1,178.28,88.36Z" style="fill:#263238"></path><polygon points="175.05 97.14 167.15 99.15 168.01 84.77 175.05 97.14" style="fill:#874c4c"></polygon></g><path d="M166.91,106.4a4,4,0,0,0-3.89-3l-.29,0a3.26,3.26,0,0,0,2.6,3A3.36,3.36,0,0,0,166.91,106.4Z" style="fill:#f28f8f"></path><g id="freepik--arm--inject-45"><g id="freepik--arm--inject-45"><path d="M125.52,251.13c-3.16-3.77-3.72-9.35-7.17-12.89-1-1.08-2.33-1.91-3.43-2.94a4.19,4.19,0,0,1-1.58-3.66c0-.78,2.27-45,2.27-45l9.53-22.76c5.22-11.69,4.51-32,.8-37.91-9.93,1.64-14.73,5-17.42,11.7-1.75,4.33-2.57,6.85-6.17,18-4.47,13.91-4.89,12.22-7.58,22.36-1.14,4.3-1.36,7.95-.47,22.59.69,11.23,2,31.35,2.14,33,.38,5.22-.48,12.72.49,15.71s2.31,6.71,3.34,9a5.63,5.63,0,0,0,3.31,3,40.59,40.59,0,0,0,4,6.34,4.06,4.06,0,0,0,4,1.42,44.44,44.44,0,0,0,3.68,4.36c2.65,2.87,3,2,3.48,1.49a3.26,3.26,0,0,0,.47-3.66c-.85-1.5-3.62-4.55-4.33-5.74a24.71,24.71,0,0,1-1.53-4.25s.78,1.19,1.52,2.39a44.14,44.14,0,0,0,4.18,4.42c2,2.11,3.65,3.26,4.46,2.56s.93-2.58,0-4.22-5.13-5.76-5.6-7.51a36,36,0,0,1-1.79-6.94c-.14-.84-1.05-4.42,1-3.33a3.12,3.12,0,0,1,1.08,1.17,12.78,12.78,0,0,0,3.14,3.49,5.6,5.6,0,0,0,4.47,1,1.55,1.55,0,0,0,.65-.3,1.27,1.27,0,0,0,.2-1.42,4.76,4.76,0,0,0-.93-1.22Z" style="fill:#9e6767"></path><path d="M111.59,269.1a26.88,26.88,0,0,1-3.71-6.23,32.38,32.38,0,0,1-2.16-6.93c.81,2.28,1.61,4.55,2.6,6.74A54.57,54.57,0,0,0,111.59,269.1Z" style="fill:#874c4c"></path><path d="M103.58,261.34a13,13,0,0,1-1.75-3.18,16.94,16.94,0,0,1-1-3.5c.54,1.09.94,2.21,1.4,3.32Z" style="fill:#874c4c"></path><path d="M113.36,261.3a32.44,32.44,0,0,1-2.81-5.61A13.16,13.16,0,0,0,114,263.3Z" style="fill:#874c4c"></path></g></g><path d="M126.35,124.68c-11.23,2.65-16.62,3.94-21.08,17.35s-9.34,30.2-9.34,30.2,2.34,3.92,9.79,7.6,12.07,3.45,12.07,3.45,9.49-21.5,11.73-29.12S132.42,130,126.35,124.68Z" style="fill:#37474f"></path></g></g></g><g id="freepik--characters-2--inject-45"><g id="freepik--Couch--inject-45"><polygon points="306.43 432.04 308.22 406.34 320.66 399.16 313.54 427.93 306.43 432.04" style="fill:#b16668"></polygon><polygon points="306.43 432.04 299.31 427.93 299.44 401.28 308.22 406.34 306.43 432.04" style="fill:#9a4a4d"></polygon><polygon points="219.2 381.69 221 356 233.44 348.81 226.32 377.58 219.2 381.69" style="fill:#b16668"></polygon><polygon points="219.2 381.69 212.08 377.58 212.22 350.93 221 356 219.2 381.69" style="fill:#9a4a4d"></polygon><polygon points="426.69 362.61 424.89 338.99 412.45 346.17 419.57 366.72 426.69 362.61" style="fill:#b16668"></polygon><polygon points="419.56 366.72 412.45 362.61 403.67 341.11 412.45 346.17 419.56 366.72" style="fill:#9a4a4d"></polygon><polygon points="306.43 405.31 427.85 335.21 427.85 343.44 306.43 413.53 306.43 405.31" style="fill:#b16668"></polygon><polygon points="206.75 355.98 306.43 413.53 306.43 405.31 206.75 347.76 206.75 355.98" style="fill:#9a4a4d"></polygon><polygon points="306.43 405.31 427.85 335.21 328.17 277.67 206.75 347.76 306.43 405.31" style="fill:#9a4a4d"></polygon><path d="M428,284.6V328a15.41,15.41,0,0,1-7,12.05l-2,1.17-.09.05a15.72,15.72,0,0,1-8.7,1.5l-87.78,46.66A15.57,15.57,0,0,1,315.55,401l-.07,0-2,1.16a2.72,2.72,0,0,1-.53.28c-.1.06-.19.09-.29.14l-.08,0a15.87,15.87,0,0,1-10.8.5,9.7,9.7,0,0,1-1.21-.45l-.19-.08a9,9,0,0,1-.82-.42L209,350a15.42,15.42,0,0,1-7-12.05l0-94.08a15.45,15.45,0,0,1,7-12l107.54-62.14a15.38,15.38,0,0,1,13.92,0l5.67,3.26a18.48,18.48,0,0,1,8,12l5.47,46.44L421,272.55A15.41,15.41,0,0,1,428,284.6Z" style="fill:#37474f"></path><path d="M336.13,172.9l-5.67-3.27a15.38,15.38,0,0,0-13.92,0L209,231.77c-.41.24-.85.55-.71.45a15.91,15.91,0,0,0-6.18,10.43c.52-3.55,3.41-4.84,6.88-2.85l5.68,3.28a15.38,15.38,0,0,0,13.92,0l107.53-62.15C340,178.72,340,175.12,336.13,172.9Z" style="fill:#455a64"></path><path d="M428,284.6V328a15.41,15.41,0,0,1-7,12.05l-2,1.17-.09.05a14.84,14.84,0,0,1-8.15,1.54,13.61,13.61,0,0,1-5.68-1.59L340.66,304a15.44,15.44,0,0,1-7-12.05V248.56a15.42,15.42,0,0,1,7-12.06l9-5.18L421,272.55A15.41,15.41,0,0,1,428,284.6Z" style="fill:#263238"></path><path d="M349.62,231.32l-9,5.18c-3.83,2.21-3.83,5.83,0,8l64.43,37.2a15.45,15.45,0,0,1,7,12.05v43.44c0,4.42,3.13,6.23,7,4l2-1.17A15.43,15.43,0,0,0,428,328V284.59a15.43,15.43,0,0,0-7-12Z" style="fill:#455a64"></path><path d="M412.05,293.79v43.44c0,4.42,3.13,6.23,7,4l2-1.17A15.43,15.43,0,0,0,428,328V284.59a14.21,14.21,0,0,0-2-6.85L410,286.94A14.23,14.23,0,0,1,412.05,293.79Z" style="fill:#37474f"></path><path d="M409.15,342.84a16.67,16.67,0,0,1-2.54,3.83c-1.48,1.66-4.63,3.47-6.55,4.58-24.48,14.14-44.73,25.88-69.21,40a7.69,7.69,0,0,1-7,0l-22.63-13.07L256,352.05c-3.84-2.21-7-7.39-7-11.55s3.12-9.34,7-11.56l25.68-14.84,19.6-11.3L325.13,289a15.42,15.42,0,0,1,13.92,0l64.43,37.21c3.84,2.21,7,3.93,7,9C410.44,336.84,410,341.14,409.15,342.84Z" style="fill:#263238"></path><path d="M330.86,376.19l76.1-44c1.92-1.11,3.48-.21,3.48,2v7a7.7,7.7,0,0,1-3.48,6l-76.11,44c-1.92,1.11-3.48.21-3.48-2v-7A7.66,7.66,0,0,1,330.86,376.19Z" style="fill:#37474f"></path><path d="M324.34,264.38,256,303.9A15.38,15.38,0,0,0,249,316v4.68a15.4,15.4,0,0,0,7,12.06l64.43,37.2a15.38,15.38,0,0,0,13.92,0l68.36-39.51a15.4,15.4,0,0,0,7-12.06v-4.68a15.4,15.4,0,0,0-7-12.06l-64.43-37.2A15.44,15.44,0,0,0,324.34,264.38Z" style="fill:#37474f"></path><path d="M327.38,350.79v20.77a14.16,14.16,0,0,1-7-1.67L256,332.69a15.4,15.4,0,0,1-7-12.05V316a15.6,15.6,0,0,1,6.25-11.61c-3.12,2.24-2.88,5.52.71,7.59l64.44,37.19A14.21,14.21,0,0,0,327.38,350.79Z" style="fill:#263238"></path><path d="M334.33,349.13l68.36-39.51c3.84-2.22,3.84-5.82,0-8l-64.43-37.2a15.44,15.44,0,0,0-13.92,0L256,303.9c-3.84,2.22-3.84,5.82,0,8l64.43,37.2A15.38,15.38,0,0,0,334.33,349.13Z" style="fill:#455a64"></path><g id="freepik--Cushion--inject-45"><path d="M288.16,228c-4.46-.44-8.15,4.7-15.58,8.33-13.84,6.77-20.07,12.93-26.52,20.44s-8.89,6.25-10.85,10.93,3.47,6.69,6.07,13.33c4.37,11.2,9.81,18.72,15.48,23.38,10,8.24,8.47,14,13,13.92,4.85-.05,4.5-4.21,12.12-7.17,18-7,25.41-13.23,33.73-25.55,3.25-4.81,7.39-4.41,8.18-9.05.39-2.33-3-3.58-6-10.87-5.06-12.11-13.15-23.48-21-29.39C293.28,233.69,292.69,228.42,288.16,228Z" style="fill:#BA68C8"></path><path d="M288.16,228c-4.46-.44-8.15,4.7-15.58,8.33-13.84,6.77-20.07,12.93-26.52,20.44s-8.89,6.25-10.85,10.93,3.47,6.69,6.07,13.33c4.37,11.2,9.81,18.72,15.48,23.38,10,8.24,8.47,14,13,13.92,4.85-.05,4.5-4.21,12.12-7.17,18-7,25.41-13.23,33.73-25.55,3.25-4.81,7.39-4.41,8.18-9.05.39-2.33-3-3.58-6-10.87-5.06-12.11-13.15-23.48-21-29.39C293.28,233.69,292.69,228.42,288.16,228Z" style="opacity:0.30000000000000004"></path><path d="M240.11,275.46c3.8,5.4,3.3,10.78,11.13,20.69,7.51,9.53,13,12.2,15.21,16.48,1.87,3.55,4.43,5.21,5,1.06s-2.66-16-10.23-26.2c-8.72-11.71-14.29-16.19-18.06-17.91C237.3,266.88,237.11,271.22,240.11,275.46Z" style="opacity:0.2"></path><path d="M282.19,306.54c-5,1.72-5.19,6.12-7.69,9.53a19.75,19.75,0,0,1,7.39-4.95c8.2-3.19,14.2-6.22,19.09-9.74C294.62,304.74,285.79,305.3,282.19,306.54Zm31.12-22.84c-3.08,2.84-2.78,7.89-6.48,12.76a69.26,69.26,0,0,0,8.79-10.89c3-4.39,6.67-4.45,7.89-8C320.79,281.06,317,280.29,313.31,283.7Z" style="opacity:0.2"></path><path d="M282,238.69c-10.61,2-21.22,7.45-28.51,15.61a8.41,8.41,0,0,0-1.94,6.16,8.21,8.21,0,0,0,4.28,6.71c2.49,1.41,6.14,1.42,8.75,1.08,5.49-.7,8.72-2.14,15.82-2.25a16.2,16.2,0,0,1,7.48,1.9c3.51,1.94,6.12,4.14,9.19,5.79,4.23,2.26,11.73,1.23,14.33-1.38,2.79-2.79,3.41-7,.92-12.21C306.75,248.45,296.43,237.1,282,238.69Z" style="fill:#BA68C8;opacity:0.30000000000000004"></path></g><path d="M306.52,398.21V354.77a15.43,15.43,0,0,0-7-12L228.17,301.5l-5.47-46.44a18.46,18.46,0,0,0-8-12L209,239.81c-3.83-2.21-7-.4-7,4V337.9A15.43,15.43,0,0,0,209,350l90.55,52.28C303.39,404.44,306.52,402.63,306.52,398.21Z" style="fill:#263238"></path><path d="M322.44,345.56V389c0,.14,0,.3,0,.45A15.57,15.57,0,0,1,315.55,401l-.07,0-2,1.16a2.72,2.72,0,0,1-.53.28c-.1.06-.19.09-.29.14l-.08,0a5.66,5.66,0,0,1-.56.21,16.15,16.15,0,0,1-10.24.29,9.7,9.7,0,0,1-1.21-.45c3.35,1.38,5.93-.5,5.95-4.5h0V354.78a15.43,15.43,0,0,0-7-12.06l-12.63-7.3-58.77-33.91,9-5.2a15.5,15.5,0,0,1,13.92,0l51.81,29.92,12.61,7.28A15.42,15.42,0,0,1,322.44,345.56Z" style="fill:#455a64"></path><path d="M306.52,354.78v43.43h0c0,4-2.6,5.88-5.95,4.5a9.7,9.7,0,0,0,1.21.45,16.15,16.15,0,0,0,10.24-.29,5.66,5.66,0,0,0,.56-.21l.08,0c.1-.05.19-.08.29-.14a2.72,2.72,0,0,0,.53-.28l2-1.16.07,0a15.57,15.57,0,0,0,6.88-11.57c0-.15,0-.31,0-.45V345.56a14.24,14.24,0,0,0-2-6.85l-15.93,9.21A14.16,14.16,0,0,1,306.52,354.78Z" style="fill:#37474f"></path><g style="opacity:0.2"><path d="M228.16,301.51c2.22-1.33,7-4.21,9.16-5.46a15.48,15.48,0,0,1,13.91.05c13.83,7.84,38.57,22.14,52.31,30.17l12.26,7.21a15.3,15.3,0,0,1,6.64,12.08,15.22,15.22,0,0,0-6.84-11.75l-12.35-7c-13.85-7.9-38.57-22.16-52.29-30.22a15.22,15.22,0,0,0-13.5-.26c-2.18,1.18-7.08,4-9.3,5.2Z" style="fill:#fff"></path></g></g><g id="freepik--Character--inject-45"><g id="freepik--bottom--inject-45"><path d="M353.43,334.84l13.32-15.12L384.81,335c-13.27,7.73-27.94,17.51-31.65,21.42,0,0-10.5-5.33-10.78-11.45S350,336,353.43,334.84Z" style="fill:#b16668"></path><path d="M339.15,338.44A9.45,9.45,0,0,0,336,340.5c-1,.87-2.1,6.08-3.4,8.29s-2,2.72-3.9,5.42c-2.12,3-5.25,5.42-4.8,14.63s3.63,14.37,6.67,17.38a9.66,9.66,0,0,0,4,2.15s5.14-.56,5.14-3.52S339.15,338.44,339.15,338.44Z" style="fill:#263238"></path><path d="M357.29,353.1c-.35.85-1.93,1.88-2.61,2.47-2.31,2-3.92,5-5.24,7.75-6.24,12.78-2.64,21-11.21,24.22-2.45.78-6.72-.71-11.17-10.93-2.27-5.22-1.9-14.65.47-18.36s4.85-5.88,6.51-8.77,2.71-8.81,5.11-11a13,13,0,0,1,5.15-2.54c1.49-.45,4.58-.76,6.09-1.16s2.44-1.08,3,.1l-2,1.48c-3.21,2.67-2.67,3.32-3.07,5.08a28.36,28.36,0,0,1-2.31,5.33c2.23-1.69,3.4-3.37,5.16-2.57s2,.77,4,3.92S357.61,352.35,357.29,353.1Z" style="fill:#BA68C8"></path><path d="M357.29,353.1c-.35.85-1.93,1.88-2.61,2.47-2.31,2-3.92,5-5.24,7.75-6.24,12.78-2.64,21-11.21,24.22-2.45.78-6.72-.71-11.17-10.93-2.27-5.22-1.9-14.65.47-18.36s4.85-5.88,6.51-8.77,2.71-8.81,5.11-11a13,13,0,0,1,5.15-2.54c1.49-.45,4.58-.76,6.09-1.16s2.44-1.08,3,.1l-2,1.48c-3.21,2.67-2.67,3.32-3.07,5.08a28.36,28.36,0,0,1-2.31,5.33c2.23-1.69,3.4-3.37,5.16-2.57s2,.77,4,3.92S357.61,352.35,357.29,353.1Z" style="opacity:0.4"></path><path d="M327.06,376.61c-2.27-5.22-1.9-14.65.47-18.36a35.76,35.76,0,0,1,2.57-3.52c-.13.26-.29.52-.38.74-.22.5-.42,1-.61,1.52a12.54,12.54,0,0,0-.91,6.31c.33,1.88,1,6.55,3.26,7.23,1.27.38,2.68-.59,3.55-1.91.36-.55,1.13-2.1,1.13-2.1a20.83,20.83,0,0,1,5.28,3.93c2.73,3,2.49,3.48,2.49,3.48a9.08,9.08,0,0,0-.85,2.87,7.39,7.39,0,0,0,.48,3.2,4.32,4.32,0,0,0,.67.89c-.94,3.07-2.39,5.31-6,6.65C335.78,388.32,331.51,386.83,327.06,376.61Z" style="opacity:0.30000000000000004"></path><path d="M349.44,363.32a47.21,47.21,0,0,0-3.62,10.57c-2.13,3.14-3.19,2.75-2.88.93s4.62-8.66,8-14.34C350.38,361.43,349.89,362.39,349.44,363.32Z" style="fill:#37474f"></path><path d="M346.81,339.55a7.71,7.71,0,0,1,2.59-4.6c.37-.07.71-.14,1-.21,1.63-.45,2.44-1.08,3,.1l-2,1.48c-3.21,2.67-2.67,3.32-3.07,5.08a28.36,28.36,0,0,1-2.31,5.33c-2.89,5.51-4.65,7.14-6.72,12.51s-1.93,9.38-2.79,9.49-2.28-.92-1.43-5.44,4.74-11.46,7-14.64S346.48,342,346.81,339.55Z" style="fill:#37474f"></path><path d="M335.64,366.81a.6.6,0,0,0,.25.22c3.68,1.81,5.5,3.32,7.51,7.47a.57.57,0,0,0,.76.26.56.56,0,0,0,.27-.76c-2.13-4.39-4.13-6.07-8-8a.57.57,0,0,0-.76.26A.57.57,0,0,0,335.64,366.81Z" style="fill:#ebebeb"></path><path d="M337.54,362.37a.63.63,0,0,0,.23.23,15.32,15.32,0,0,1,7.87,8.06.57.57,0,0,0,.78.27.6.6,0,0,0,.27-.79,16.46,16.46,0,0,0-8.38-8.58.58.58,0,0,0-.77.81Z" style="fill:#ebebeb"></path><path d="M338.75,357.26a.69.69,0,0,0,.26.25c4.17,2.17,6.42,4.22,8.78,9A.64.64,0,1,0,349,366c-2.49-5.08-4.93-7.33-9.35-9.63a.64.64,0,0,0-.85.9Z" style="fill:#ebebeb"></path><path d="M340.6,353.11a.67.67,0,0,0,.26.24c4.09,2.13,6.27,4.1,8.59,8.84a.64.64,0,0,0,1.14-.56c-2.44-5-4.81-7.15-9.15-9.4a.63.63,0,0,0-.85.27A.66.66,0,0,0,340.6,353.11Z" style="fill:#ebebeb"></path><path d="M343.29,349.29a.64.64,0,0,0,.25.24c4.09,2.13,6.27,4.09,8.59,8.84a.64.64,0,0,0,1.14-.56c-2.44-5-4.81-7.15-9.14-9.4a.64.64,0,0,0-.86.27A.63.63,0,0,0,343.29,349.29Z" style="fill:#ebebeb"></path><path d="M344.11,260.7c0,3.56,20,10.69,35.36,16,17.63,6.11,26,10.4,32.38,17.14,3.61,3.81,5.63,8.56,4.38,14.56-.9,4.36-4.85,11.38-13.34,17.77C386.78,338.31,379.05,341,367.74,348c0,0-11.22-7.8-12.8-16.58l16.31-17L326,299.78Z" style="fill:#BA68C8"></path><path d="M344.11,260.7c0,3.56,20,10.69,35.36,16,17.63,6.11,26,10.4,32.38,17.14,3.61,3.81,5.63,8.56,4.38,14.56-.9,4.36-4.85,11.38-13.34,17.77C386.78,338.31,379.05,341,367.74,348c0,0-11.22-7.8-12.8-16.58l16.31-17L326,299.78Z" style="fill:#fff;opacity:0.4"></path><path d="M377.37,331.85c.77,3.24,2,9,2,9.49-2.89,1.59-8.45,4.68-11.64,6.63,0,0-11.22-7.8-12.8-16.58l14.28-14.91C373.81,321.25,375.34,323.32,377.37,331.85Z" style="fill:#BA68C8;opacity:0.5"></path><path d="M376.13,304.89c-4,3.37-5.57,3.09-13.3,1.12l-3-.77L348.2,294c3.78-4.77,6.17-15.45,4.42-20.64l-14.29-4.66-12.36,31,5.55,1.79,39.73,12.79c6-6.87,12.29-13.26,18.12-13.84C385.57,299.54,381.74,300.2,376.13,304.89Z" style="fill:#BA68C8;opacity:0.5"></path><path d="M373.13,406.39l-12.21-24,23.3-12.81c4.46,14.88,7.57,32.42,11.39,38.56,0,0-6.88,10.32-13.64,9S373.46,410.41,373.13,406.39Z" style="fill:#b16668"></path><path d="M374,418.86a10.35,10.35,0,0,0,1.43,3.92c.71,1.3,6.12,3.86,8.2,5.84s2.46,2.85,4.92,5.61c2.73,3.06,4.58,7,14.77,9s16.64-.08,20.71-2.53a10.48,10.48,0,0,0,3.4-3.74s.7-5.65-2.53-6.43S374,418.86,374,418.86Z" style="fill:#263238"></path><path d="M394.66,403.36c.84.6,1.56,2.56,2,3.45,1.57,3,4.51,5.53,7.13,7.65,12.38,10.07,22.31,8.42,23.6,18.43.23,2.82-2.5,7-14.81,9-6.29,1-16.51-1.86-20-5.37s-5.18-6.76-7.92-9.3S375.8,422,374,418.86a14.18,14.18,0,0,1-1.46-6.18c-.11-1.71-.14-7.5-.14-7.5,2.09,4.14,5.37,3.73,7.2,4.62s3.55,2.58,5.23,3.89c-1.27-2.84-2.81-4.53-1.48-6.2s1.35-1.93,5.31-3.23S393.92,402.82,394.66,403.36Z" style="fill:#BA68C8"></path><path d="M394.66,403.36c.84.6,1.56,2.56,2,3.45,1.57,3,4.51,5.53,7.13,7.65,12.38,10.07,22.31,8.42,23.6,18.43.23,2.82-2.5,7-14.81,9-6.29,1-16.51-1.86-20-5.37s-5.18-6.76-7.92-9.3S375.8,422,374,418.86a14.18,14.18,0,0,1-1.46-6.18c-.11-1.71-.14-7.5-.14-7.5,2.09,4.14,5.37,3.73,7.2,4.62s3.55,2.58,5.23,3.89c-1.27-2.84-2.81-4.53-1.48-6.2s1.35-1.93,5.31-3.23S393.92,402.82,394.66,403.36Z" style="opacity:0.4"></path><path d="M412.61,441.93c-6.29,1-16.51-1.86-20-5.37a46.84,46.84,0,0,1-3.19-3.69c.25.21.49.44.71.61.5.36,1,.71,1.51,1a14.42,14.42,0,0,0,6.66,2.64c2.14.15,7.42.67,8.74-1.56.75-1.26,0-3-1.17-4.3-.51-.53-2-1.77-2-1.77a22.52,22.52,0,0,1,5.65-4.6c4-2.12,4.45-1.74,4.45-1.74a10.27,10.27,0,0,0,2.91,1.67,8.47,8.47,0,0,0,3.62.33,4.87,4.87,0,0,0,1.14-.47c3.13,1.82,5.2,4,5.74,8.16C427.65,435.71,424.92,439.89,412.61,441.93Z" style="opacity:0.30000000000000004"></path><path d="M403.82,414.46a53.8,53.8,0,0,0,10.63,6.69c2.88,3.11,2.19,4.14.27,3.32s-8.27-7.23-13.62-12.33C402,413,402.92,413.74,403.82,414.46Z" style="fill:#37474f"></path><path d="M377.16,411c-1.84-.71-3.34-1-4.69-2.38-.88-.81-.77-3.28-.4-4.29l1.14,2.23c2.46,2.08,4.54,2.38,6.37,3.27s3.55,2.58,5.23,3.89c5.28,4.55,6.62,6.87,11.95,10.51s9.76,4.55,9.66,5.5-1.59,2.2-6.31.08-11.31-8.11-14.2-11.4S379.74,412,377.16,411Z" style="fill:#37474f"></path><path d="M404.09,430.15a.64.64,0,0,0,.31-.2c2.92-3.46,5-5,10.09-6.06a.62.62,0,0,0,.49-.74.66.66,0,0,0-.77-.49c-5.34,1.12-7.7,2.8-10.8,6.48a.62.62,0,0,0,.09.88A.68.68,0,0,0,404.09,430.15Z" style="fill:#ebebeb"></path><path d="M399.73,427a.66.66,0,0,0,.3-.2c3.13-3.52,5.5-5.13,10.84-6.27a.61.61,0,0,0,.49-.76.67.67,0,0,0-.78-.5c-5.63,1.2-8.23,2.95-11.54,6.68a.63.63,0,0,0,.07.91A.67.67,0,0,0,399.73,427Z" style="fill:#ebebeb"></path><path d="M394.45,424.29a.61.61,0,0,0,.34-.21c3.44-3.88,6.26-5.74,12.14-7a.7.7,0,0,0,.55-.84.74.74,0,0,0-.87-.55c-6.19,1.32-9.27,3.33-12.92,7.44a.69.69,0,0,0,.08,1A.71.71,0,0,0,394.45,424.29Z" style="fill:#ebebeb"></path><path d="M390.39,421.21a.78.78,0,0,0,.33-.21c3.37-3.81,6.08-5.62,11.87-6.84a.7.7,0,0,0,.53-.83.71.71,0,0,0-.85-.53c-6.07,1.28-9,3.24-12.63,7.27a.7.7,0,0,0,.08,1A.75.75,0,0,0,390.39,421.21Z" style="fill:#ebebeb"></path><path d="M386.9,417.32a.63.63,0,0,0,.33-.21c3.38-3.8,6.08-5.61,11.87-6.84a.68.68,0,0,0,.53-.82.71.71,0,0,0-.85-.54c-6.07,1.29-9,3.25-12.63,7.28a.71.71,0,0,0,.75,1.13Z" style="fill:#ebebeb"></path><path d="M350.92,260.92c-.2,0-6.69,0-6.69,0-20.89.94-43,2.78-63.82,3.63-1.11,10-3.11,18.21-.49,28.64,2.4,9.55,10.6,17.71,18.92,23.58,9.86,7,29.59,15.83,37.41,20.58,11.27,6.84,7.41,9,10.67,20,2.08,7,5.36,13.25,11.8,24.34,4,6.93,5.73,10.08,9.55,16.06,7.33,3.07,17-1.07,22.09-6.91-4.87-18.79-10-38.28-14.47-56.82-2.51-10.36-4.91-14.06-13.47-21.93-6.72-6.18-10.73-10.06-19.64-17.41C358.81,280.34,352.54,266.66,350.92,260.92Z" style="fill:#BA68C8"></path><path d="M350.92,260.92c-.2,0-6.69,0-6.69,0-20.89.94-43,2.78-63.82,3.63-1.11,10-3.11,18.21-.49,28.64,2.4,9.55,10.6,17.71,18.92,23.58,9.86,7,29.59,15.83,37.41,20.58,11.27,6.84,7.41,9,10.67,20,2.08,7,5.36,13.25,11.8,24.34,4,6.93,5.73,10.08,9.55,16.06,7.33,3.07,17-1.07,22.09-6.91-4.87-18.79-10-38.28-14.47-56.82-2.51-10.36-4.91-14.06-13.47-21.93-6.72-6.18-10.73-10.06-19.64-17.41C358.81,280.34,352.54,266.66,350.92,260.92Z" style="fill:#fff;opacity:0.4"></path><path d="M389.08,384.85c-5,7.22-15.67,9.36-23.84,8.38,1.18,2.38,2.7,4.57,3.88,7,8.58,2.11,15.91-1.13,21.62-7.62C390.24,390,389.67,387.42,389.08,384.85Z" style="fill:#BA68C8"></path></g><g id="freepik--top--inject-45"><path d="M323.53,185.17c-2.27-1-5.24-.52-7.66-.56a31.51,31.51,0,0,1-5.14-.37,13.43,13.43,0,0,1-8-4.5,10.34,10.34,0,0,1-2.21-8.75,4.74,4.74,0,0,0-1.77,5.58,6.26,6.26,0,0,1-3.18-2.48,4.23,4.23,0,0,1-.43-3.78c.69-1.67,2.6-2.73,2.93-4.5s-.88-3.2-2-4.41-2.48-2.56-2.51-4.25a3.21,3.21,0,0,1,1.06-2.42c-1.9-.34-3.51-1.17-3.91-3.27.36.54,1.14.52,1.79.44a3,3,0,0,0,1.36-.4c.83-.59.82-1.79.7-2.8-.39-3.19-1.08-6.4-.67-9.59a8.51,8.51,0,0,1,.83-2.85,8.93,8.93,0,0,1,1.62-2.1,18.36,18.36,0,0,1,9-5c-1.79.14-3.91-.12-5.13-1.48s-1.92-3.64-.27-5.24a1.82,1.82,0,0,0,.69,1.93,3.31,3.31,0,0,0,2.06.6c3.51,0,4.67-3.31,7.36-4.86a11.63,11.63,0,0,1,8.22-1.34,45.82,45.82,0,0,1,5.31,1.87,9.68,9.68,0,0,0,5.29.56c1.67-.36,3.27-.93,5-1.15a15,15,0,0,1,15,8.14,2.32,2.32,0,0,0,.72,1,2.29,2.29,0,0,0,1,.26c5.33.7,7.84,5.36,8.53,10.16a12.87,12.87,0,0,0,.43,2.71,8.29,8.29,0,0,0,2.43,3c2.19,2.07,4.22,4.86,3.73,7.83s-3.31,5.39-2.8,8.32a13.92,13.92,0,0,0,1.43,3.24,8.89,8.89,0,0,1,.45,6,9.35,9.35,0,0,1-3.55,5,8,8,0,0,0-2.28,2.5,2.73,2.73,0,0,0,.39,3.16,4.57,4.57,0,0,1-3.86-5.89,5.75,5.75,0,0,0-1.36,5c.37,1.68,1.48,3.16,1.58,4.87a5.21,5.21,0,0,1-2.91,4.66,4.4,4.4,0,0,0-.37-3.24c-.82-1.51-2.47-2.45-3.18-4,.47,1.95.9,4.13-.11,5.86a6.24,6.24,0,0,1-3.79,2.52c-4,1.13-5.61-2-9.11-2.91-2.68-.67-5.64.82-8.21-.2C326.32,187.45,325.18,185.86,323.53,185.17Z" style="fill:#263238"></path><g id="freepik--arm--inject-45"><path id="freepik--arm--inject-45" d="M292.84,177.72a16,16,0,0,1,9.6,4.17c2.05,1.67,10.12,8.89,10.12,8.89l7.9,7.42s14.29-13.39,19.47-13.74l.88,15.4s-11.06,9.38-15,13.34c-2.72,2.75-5.62,4.61-10,1.41s-20.81-17-20.81-17Z" style="fill:#b16668"></path><path d="M293.48,176.69c3.86.61,5.81,2.35,8,4s12.82,11.11,12.82,11.11-4,10.16-11.46,11.11l-10.53-7.23Z" style="fill:#37474f"></path></g><path d="M286.21,228.86c0,4.19-1.42,17.45-1.42,17.45-.69,4.57-6.16,12.12-6.74,33,30.34,14.65,74.83-.43,75.8-12.24-3.06-14.84-3.49-19.73-3.05-24.26,0,0,5.46-17.24,6.73-22.52,3.3-13.73,1.64-20.59-1-22.43-1.51-1.06-7.9-3.86-9.95-4.74-9.29-4-23.06-6.08-32.06-7.09-3.39-.25-4.44-.27-4.44-.27a82.94,82.94,0,0,0-13.51,9.49c-8.19,7.37-13.89,14.28-13.84,22.94A20.6,20.6,0,0,0,286.21,228.86Z" style="fill:#fafafa"></path><path d="M310.35,186.76c.48,0,1.7.08,4.1.26,7.78.87,22.27,2.94,31.79,7a98.58,98.58,0,0,1,9.77,4.64c2.27,1.6,3.79,8.17.6,21.43-1.25,5.18-6.66,22.28-6.72,22.45l0,.09v.1c-.43,4.44-.09,9.23,3,24.41-.41,3.6-5.8,7.93-14.14,11.34a87,87,0,0,1-31.68,5.95c-10.4,0-20.09-2-28.05-5.69.48-14.68,3.45-22.7,5.23-27.52a26,26,0,0,0,1.48-4.82c.06-.55,1.45-13.37,1.43-17.57v-.3l-.18-.25a19.82,19.82,0,0,1-3.27-10.08c0-8.3,5.37-14.89,13.52-22.22a81.39,81.39,0,0,1,13.12-9.24m-.24-1a82.94,82.94,0,0,0-13.51,9.49c-8.19,7.37-13.89,14.28-13.84,22.94a20.6,20.6,0,0,0,3.45,10.63c0,4.19-1.42,17.45-1.42,17.45-.69,4.57-6.16,12.12-6.74,33,8.93,4.31,19.1,6,29,6,23.76,0,46.1-10,46.78-18.29-3.06-14.84-3.49-19.73-3.05-24.26,0,0,5.46-17.24,6.73-22.52,3.3-13.73,1.64-20.59-1-22.43-1.51-1.06-7.9-3.86-9.95-4.74-9.29-4-23.06-6.08-32.06-7.09-3.39-.25-4.44-.27-4.44-.27Z" style="fill:#e0e0e0"></path><g id="freepik--head--inject-45"><path d="M345.35,173.17a7.51,7.51,0,0,0,7-1.92c3.94-3.56,4.66-7.52,3.26-10.33-1.15-2.32-4.37-4-6.87-2.79a7.63,7.63,0,0,0-3.21,3c-.83,1.34-2.15,2.6-3.63,1a5.74,5.74,0,0,1-1.17-4.15,18.16,18.16,0,0,1,2-6.3c-4.32-1.54-6.39-6-6.42-10.39a31.6,31.6,0,0,1-7-3.2,10.46,10.46,0,0,1-4.53-6c-2.68,3.3-7.22,4.58-11.47,4.52a1.82,1.82,0,0,0-.77.1,1.52,1.52,0,0,0-.57.5c-1.21,1.51-1.42,2.88-2.12,4.59a35.73,35.73,0,0,0-1.26,3.65c-.73,2.51-1.23,5.08-1.72,7.64-2.45,12.86-2.27,19.63,2.12,24,2,2,4.93,3.31,9.77,4l-1.25,7.53s-12.09,14.12,4.8,12.95c11.08-.77,16.8-9.54,16.8-9.54l3.64-21.11S342.89,172.46,345.35,173.17Z" style="fill:#b16668"></path><path d="M325.64,165.12l-7.32,1.61a3.68,3.68,0,0,0,4.39,3A3.92,3.92,0,0,0,325.64,165.12Z" style="fill:#9a4a4d"></path><path d="M324.76,166.32a4.59,4.59,0,0,1,.91,0,3.86,3.86,0,0,1-3,3.38,3.75,3.75,0,0,1-1.2,0A3.43,3.43,0,0,1,324.76,166.32Z" style="fill:#f28f8f"></path><path d="M326.93,155.05a2.16,2.16,0,1,0,1.66-2.62A2.2,2.2,0,0,0,326.93,155.05Z" style="fill:#263238"></path><path d="M310.9,147.31l5.07-.9a2.48,2.48,0,0,0-2.9-2.12A2.7,2.7,0,0,0,310.9,147.31Z" style="fill:#263238"></path><path d="M315.43,153a2.15,2.15,0,1,1-3.87-1.87,2.17,2.17,0,0,1,2.9-1.08A2.21,2.21,0,0,1,315.43,153Z" style="fill:#263238"></path><path d="M328.65,148.64l4.54,3.12a2.64,2.64,0,0,0-.61-3.79A2.9,2.9,0,0,0,328.65,148.64Z" style="fill:#263238"></path><path d="M324,149.3l-3.51,13.15-6.66-3.34C317.28,153.69,320.68,150.81,324,149.3Z" style="fill:#9a4a4d"></path><path d="M318.78,181c4.55.15,9.36.14,14.11-1.21,1.68-.47,4.2-3.1,6.36-6.11,0,0-2,6.21-5.76,8-5.67,2.67-15.19,2.27-15.19,2.27Z" style="fill:#9a4a4d"></path></g><g id="freepik--Boy--inject-45"><g id="freepik--bottom--inject-45"><path d="M288.1,280.75c-.06,1.67-.78,21.12-.78,21.12s6.9,6.39,13,3.16c-.5-3.26,4-15.57,6.53-23.74C304.11,281.73,289.66,281,288.1,280.75Z" style="fill:#874c4c"></path><path d="M285.09,307.69l25.8,16.88.35.29c-.11.79-.48,1.67-2.27,2.11-2.36.59-8.68-.16-13.17-2.82s-6.29-7.58-7-8.72c-1.25-2-4-2.2-4.74-4.26A4.79,4.79,0,0,1,285.09,307.69Z" style="fill:#263238"></path><path d="M302.36,304.08a6.69,6.69,0,0,1-.39,2,4.21,4.21,0,0,0,.51,2.54,23.32,23.32,0,0,0,3.76,5.55,52,52,0,0,0,4.52,4.51,4,4,0,0,1,.13,5.88,13.12,13.12,0,0,1-7.4.25c-4.58-.93-7.31-2.09-10.26-5.28-2.05-2.22-2.29-4-4.35-6.2-.83-.88-3.79-2.28-4.5-4.19a8.78,8.78,0,0,1,1.05-4.25,10.39,10.39,0,0,0,.78-2.73c.14-1.48-.11-2.08.21-2.83a.94.94,0,0,1,1-.59l0,1.12c.08,1.54,3.63,3.13,5.25,3.45.32-1,.27-1.51.94-1.89a5.07,5.07,0,0,1,3-.09,20.58,20.58,0,0,1,4.09,1.25,2.72,2.72,0,0,1,1.5,1A1.55,1.55,0,0,1,302.36,304.08Z" style="fill:#37474f"></path><path d="M305.9,313.33a3.56,3.56,0,0,0-.85-.49,5.74,5.74,0,0,0-2-.52,9.73,9.73,0,0,0-4.35.55c-.28.1-.17.73.16.62a9.75,9.75,0,0,1,4-.34,13.93,13.93,0,0,1,1.7.25,3.79,3.79,0,0,1,1.67.71A.9.9,0,0,0,305.9,313.33Z" style="fill:#fafafa"></path><path d="M303.91,310.85a3.15,3.15,0,0,0-.78-.5,4.2,4.2,0,0,0-1-.36,9.63,9.63,0,0,0-1.08-.11,16.85,16.85,0,0,0-2,0c-.58,0-1.77.19-1.52.63l.06.07c.32.32,1,.13,1.37.09a18.26,18.26,0,0,1,2,0,11.89,11.89,0,0,1,1.88.21,4.6,4.6,0,0,1,.89.28,1.08,1.08,0,0,1,.5.4C304.28,311.4,304.08,311,303.91,310.85Z" style="fill:#fafafa"></path><path d="M302.85,308.85a2.2,2.2,0,0,0-1.38-1.25,5.78,5.78,0,0,0-1.73-.5,12,12,0,0,0-2.14-.08l-.73.06-.17,0-.1,0-.09,0h-.07a2.29,2.29,0,0,0-.28.09.53.53,0,0,0-.24.17.28.28,0,0,0,.05.33.38.38,0,0,0,.13.09h0l.06,0,.15,0,.33,0h.11l.64-.09h.13l.13,0a3.68,3.68,0,0,1,.66-.06h.73l.18,0,.34,0a9.29,9.29,0,0,1,1.44.3c.22.07.55.21.75.3a2.57,2.57,0,0,1,.93.62C302.79,309.13,302.89,308.93,302.85,308.85Z" style="fill:#fafafa"></path><path d="M311.24,324.86c2.26-2.26,2.15-4.79-.89-7.15s-9.08-2.61-11.63-1.76-4.47,2.29-4.27,4.8c0,0,3.06,3.46,9.69,4.69A11.75,11.75,0,0,0,311.24,324.86Z" style="fill:#fafafa"></path><path d="M288.72,261a141.38,141.38,0,0,0-1.38,17.42c.08,7.14-.23,14.56-.23,14.56s5.94,4.42,16.06,3c0,0,4.38-13.71,7.51-23,3.55-10.48,8.71-13.29,3.58-24.29s-12.62-22-12.62-26.75l-47.88-.2Z" style="fill:#455a64"></path><path d="M289.61,299c.6,1.57,7.51,19.95,7.51,19.95s8.93,3.64,13.32-1.42c-1.74-2.87-2.33-15.86-3.16-24.32C304.92,294.53,291.15,298.66,289.61,299Z" style="fill:#9e6767"></path><path d="M296.86,324.4,328,332.18l.44.15c.2.78.19,1.72-1.3,2.74-2,1.34-8.16,2.76-13.38,1.8s-8.82-5-9.93-5.77c-1.94-1.43-5-1.4-6.64-3.34A8.73,8.73,0,0,1,296.86,324.4Z" style="fill:#263238"></path><path d="M312,316a6.88,6.88,0,0,1,.43,2,4.44,4.44,0,0,0,1.46,2.2,25.53,25.53,0,0,0,5.67,3.91,55.75,55.75,0,0,0,6,2.68,4.08,4.08,0,0,1,2.42,5.44c-.82.74-2.83,2.14-6.8,2.72-4.64.68-7.64.51-11.62-1.47-2.78-1.38-3.69-2.95-6.48-4.31-1.12-.55-4.87-1.57-6.28-3.12a6,6,0,0,1-.58-3.78c.05-1.41.26-1.84,0-2.62-.44-1.42-.91-1.9-.9-2.71A.87.87,0,0,1,296,316l.4,1.06c.67,1.41,4.6,1.69,6.23,1.45-.1-1.07-.33-1.49.15-2.08s1.88-.92,2.79-1.1a20,20,0,0,1,4.31-.21,2.8,2.8,0,0,1,1.79.45A1.44,1.44,0,0,1,312,316Z" style="fill:#37474f"></path><path d="M318.91,323.38a3.6,3.6,0,0,0-1-.17,5.77,5.77,0,0,0-2.11.2,9.27,9.27,0,0,0-3.84,2c-.22.19.13.74.39.52a9.68,9.68,0,0,1,3.59-1.66,15.61,15.61,0,0,1,1.68-.34,4.23,4.23,0,0,1,1.84.1A1,1,0,0,0,318.91,323.38Z" style="fill:#fafafa"></path><path d="M316.09,321.74a3.62,3.62,0,0,0-.92-.21,4.49,4.49,0,0,0-1.1,0,7.32,7.32,0,0,0-1.05.26,14.87,14.87,0,0,0-1.87.68c-.53.23-1.58.78-1.17,1.1l.08,0c.42.2.95-.2,1.31-.37a14.65,14.65,0,0,1,1.81-.69,12.86,12.86,0,0,1,1.83-.45,5,5,0,0,1,.95,0,1.12,1.12,0,0,1,.62.2C316.65,322.13,316.31,321.82,316.09,321.74Z" style="fill:#fafafa"></path><path d="M314.33,320.23a2.36,2.36,0,0,0-1.78-.7,5.85,5.85,0,0,0-1.81.12,11.36,11.36,0,0,0-2,.64c-.22.1-.45.19-.66.3l-.15.09-.09.05-.08,0-.06,0a1.3,1.3,0,0,0-.22.19.46.46,0,0,0-.16.23.3.3,0,0,0,.18.29.42.42,0,0,0,.15,0h.1l.16,0a1.09,1.09,0,0,0,.31-.08l.1,0c.2-.08.38-.2.57-.29l.11-.06.12-.06a4.53,4.53,0,0,1,.59-.28l.31-.11.16-.05h0l.07,0,.1,0,.18-.05.32-.08a8.3,8.3,0,0,1,1.47-.2,5.65,5.65,0,0,1,.82,0,2.87,2.87,0,0,1,1.1.26C314.37,320.51,314.39,320.29,314.33,320.23Z" style="fill:#fafafa"></path><path d="M328.39,332.33c1.22-2.87.13-5.19-3.62-6.36s-9.48.62-11.53,2.27-3.27,3.64-2.1,5.91c0,0,4.19,2.19,10.85,1.11C326.42,334.55,328.39,332.33,328.39,332.33Z" style="fill:#fafafa"></path><path d="M253.76,220.92c-1.28,6.35-1.84,16.15,1.42,24.51S271,266,275,269.75s8.93,8.91,8.93,8.91,1.25,11.79,4.11,18.42,5.46,13.64,5.46,13.64,7.27,2.12,16.14-2.63c0,0-1.27-14.25-2-23.94-.78-11-.3-14.66-5.88-24.57-6-10.69-11.67-15.78-11.67-15.78s5.17-14.39,1.55-26.63Z" style="fill:#455a64"></path><path d="M281.36,269.68c-2.35-2.48-5.26-5.55-9-9.71-11.79-13-14.16-20.33-15-31.88l-.89.06c.86,11.73,3.26,19.19,15.21,32.35,3.78,4.17,6.7,7.25,9.05,9.73,4.6,4.85,6.51,6.86,6.95,8.65.57,6.49,1.34,9.93,5.37,21.05,1.36,3.77,2.75,7.47,4.17,11.17.31,0,.56,0,.88,0-1.45-3.79-2.8-7.55-4.21-11.43-4-11.06-4.75-14.44-5.33-20.91C288,276.7,286.07,274.64,281.36,269.68Z" style="fill:#37474f"></path><path d="M260.58,244.26l-.36-.76c5.22-2.13,6.5-7.65,3.72-16l.85-.25C268.5,238.38,264.55,242.64,260.58,244.26Z" style="fill:#37474f"></path><path d="M290.08,243.8c-6.18-5.11-13.25-3.17-17.89-1.86,10.87-6.48,19.29-.71,19.29-.71a19.82,19.82,0,0,0,5-9.88c1.81,5.84-3.29,11.4-3.29,11.4s9.24,15.95,11.67,22.4A168.26,168.26,0,0,0,290.08,243.8Z" style="fill:#37474f"></path></g><g id="freepik--top--inject-45"><path d="M254.49,209.92c.3-8.87.54-18.29.44-20.53-.19-4.59,1.25-11.7,7.35-13s9.4-1.85,9.4-1.85,10.59.47,13.11.79c4.38.57,8.69,1.4,8.69,1.4,2.38,2,8.64,7.63,8.28,23.91-.08,4-.11,11.24.72,22.09a3.47,3.47,0,0,1-1.33,2.71c-8.67,7.8-38,8.29-46.95.56a4.24,4.24,0,0,1-1.25-4A66.87,66.87,0,0,0,254.49,209.92Z" style="fill:#fafafa"></path><path d="M271.74,175.45c1.07.05,10.61.49,12.93.79,3.71.47,7.41,1.15,8.39,1.33,2.22,1.92,8.09,7.43,7.75,23-.14,6.6.1,14.06.72,22.18a2.65,2.65,0,0,1-1,1.93c-4,3.57-13.26,5.87-23.7,5.87-9.76,0-18.19-2-22-5.32a3.37,3.37,0,0,1-.93-3.12c.07-.45.18-1,.31-1.63A58,58,0,0,0,255.44,210c.29-8.59.54-18.29.44-20.6,0-1.08-.24-10.57,6.61-12.07,5.34-1.17,8.66-1.73,9.25-1.83m-.06-.95s-3.41.54-9.4,1.85-7.54,8.45-7.35,13c.1,2.24-.14,11.66-.44,20.53A66.87,66.87,0,0,1,253,222a4.24,4.24,0,0,0,1.25,4c4.33,3.74,13.41,5.55,22.61,5.55,9.86,0,19.86-2.08,24.34-6.11a3.47,3.47,0,0,0,1.33-2.71c-.83-10.85-.8-18.14-.72-22.09.36-16.28-5.9-21.88-8.28-23.91,0,0-4.31-.83-8.69-1.4-2.52-.32-13.11-.79-13.11-.79Z" style="fill:#e0e0e0"></path><path d="M284.05,169.59c14.12-10.8,18.52-33.37-2.35-39.24-6.18-1.85-13.58-2-19.7,2.86-8,6.34-7.53,22.58,2.72,26.73C268,161.14,282.57,171.33,284.05,169.59Z" style="fill:#263238"></path><path d="M287.23,157.27a.91.91,0,0,0,.21.18c1.14.8,1.19-1.23,2.39-2.54a3,3,0,0,1,2.53-.9,3.85,3.85,0,0,1,3.55,2.38,5.68,5.68,0,0,1-3.68,7.27,4.62,4.62,0,0,1-4.93-1.18l-.37,14s4.84,4.74-2.34,5.17c-8.32.5-14.09-3-15.14-4.93l.1-3.57A19.27,19.27,0,0,1,263.6,172c-5.37-2.2-6.63-6.7-7.22-9.05a13.38,13.38,0,0,1,0-5.53c.32-1.86,1.33-3.91,1.23-5.76a27.8,27.8,0,0,1,2.22-12.15,3.48,3.48,0,0,1,1.12-1.68c1.18-.81,3.34.78,4.46,1.21a31.82,31.82,0,0,0,15.77,1.9,1.35,1.35,0,0,1,.87.08c.43.26-.13,2.7-.09,3.31a9.83,9.83,0,0,0,.84,3.66,11.82,11.82,0,0,0,4.09,5,7,7,0,0,0-.05,3.31A2.23,2.23,0,0,0,287.23,157.27Z" style="fill:#9e6767"></path><path d="M273.85,149.83l4.23,2.21a2.5,2.5,0,0,0-1.05-3.3A2.33,2.33,0,0,0,273.85,149.83Z" style="fill:#263238"></path><path d="M271.86,161.43a14.72,14.72,0,0,1-3.88.64,1.1,1.1,0,0,0-.77,1.86,3.61,3.61,0,0,0,3.3.91,3.17,3.17,0,0,0,2.74-2.1A1.09,1.09,0,0,0,271.86,161.43Z" style="fill:#874c4c"></path><path d="M269.23,164.64a.29.29,0,0,1,0-.09,3.28,3.28,0,0,1,3.81-2.08.71.71,0,0,1,0,.24,2.89,2.89,0,0,1-2.5,1.91A4,4,0,0,1,269.23,164.64Z" style="fill:#ffa8a7"></path><path d="M258.78,149.3l4.7-1.07a2.32,2.32,0,0,0-2.8-1.85A2.55,2.55,0,0,0,258.78,149.3Z" style="fill:#263238"></path><polygon points="268.93 151.19 267.65 159.7 263.02 157.89 268.93 151.19" style="fill:#874c4c"></polygon><path d="M272.92,154.34a1.77,1.77,0,1,0,1.58-1.93A1.77,1.77,0,0,0,272.92,154.34Z" style="fill:#263238"></path><path d="M259.74,152.88a1.77,1.77,0,1,0,1.58-1.93A1.77,1.77,0,0,0,259.74,152.88Z" style="fill:#263238"></path><path d="M269.55,173.11a22,22,0,0,0,11.28-3,12.06,12.06,0,0,0,4.3-5.11s-.9,3.56-2.69,5.37c-4.69,4.76-12.95,4.86-12.95,4.86Z" style="fill:#874c4c"></path></g></g><g id="freepik--man-arms--inject-45"><path d="M257.68,250.17c.78,2.09,5.33.62,9.38,1.83a41.74,41.74,0,0,0,10.43,1.4c2.51.13,2.21,2.13-.38,3.6s-7.9.72-8.59,1.11-2.69,2.21,1.2,3.91,8.87,3.37,10.27,5.88-10.59,6.64-14.31,3.43-3.85-2.62-5.84-4.82c-6.23-6.9-4.95-13.71-3.56-18.71Z" style="fill:#9a4a4d"></path><path d="M326.44,252.87c-6.32,2.79-18.83,6.21-27.61,9.09-4.18,1.17-7.71,2.79-12.08,3.09-2.86.13-6.5-1.93-8.94-3.2-5.13-2.28-9.87-2.68-15-5-2.16-1-2.15,2.59-.26,4.72s8,3.27,7.85,6.29a.91.91,0,0,1-.73.34c-11-.2-11.82-4.57-13-6.23a5.87,5.87,0,0,0-2.92,4.35c.24,1.34,1.32,1.89,1.7,3.19s-.35,1.84.51,2.87c.43.35.83.73,1.26,1.09,1,.72,1.21,1.93,1.36,3.1.45,2.37,2,3.57,4,4.58a54,54,0,0,0,11.51,3.44c6.91.81,11.72-1.57,17.64-2.72,4.08-.79,35.53-5.42,43.4-7.34,9.67-2.37,10.61-5.85,13.93-12.67,5.27-10.83,8.71-17.89,11.89-25.27,4.85-11.26,11.88-24.91,2.83-33.53a37.33,37.33,0,0,0-7.5-4.93s-9.56,3.58-15.55,18.53C340.78,216.68,327,251.21,326.44,252.87Z" style="fill:#b16668"></path><path d="M297.34,272.21a12.6,12.6,0,0,0-4.43-7.92,4.73,4.73,0,0,0-2.39-1,2.07,2.07,0,0,0-1.38.29.72.72,0,0,0-.38.79c.12.32.51.41.84.48a6.22,6.22,0,0,1,3.37,2.26,12.16,12.16,0,0,1,2,10.48c-.37,1.4-1.3,3.68-3,3.86a.92.92,0,1,0,.16,1.83c3.32-.36,4.73-3.5,5.16-6.45A15.63,15.63,0,0,0,297.34,272.21Z" style="fill:#f5f5f5"></path><path d="M356.27,197.68a28.69,28.69,0,0,1,9.61,7c1.11,1.43,4.71,7.59,1.39,17.67S355.67,250,355.67,250s-3.32,1.36-13.07-2.07-11.82-7.67-11.82-7.67,7.49-19.48,9.41-24.66S348.65,200.05,356.27,197.68Z" style="fill:#37474f"></path></g><g id="freepik--boy-arms--inject-45"><path d="M339.29,191l1-5.86c1.62.48,3.75,1.28,6.86,6,2.71,4.14,2.33,6.08,2.11,9.3-.19,2.89.11,5-.93,4.85s-1.54-1.74-1.49-2.77a17.27,17.27,0,0,0-.37-3.45s-.68,3.55-1.9,4.53a18.68,18.68,0,0,1-5.07,2.82c-1.52.44-2,.33-2.31-.62-.85.44-1.78,1.7-2.57,1.92a1.57,1.57,0,0,1-1.81-1.33,1.79,1.79,0,0,1-1.13-2c.15-1.62,2-3.34,3-4.52S339.29,191,339.29,191Z" style="fill:#874c4c"></path><path d="M346.46,202.24a1.43,1.43,0,0,0-1.08-.67,6.34,6.34,0,0,0-1.23-.13,9.5,9.5,0,0,0-1.51,0l-1.74.2a11.93,11.93,0,0,1-2.15.07c-.28,0-.63-.13-.62-.4s.16-.29.31-.35a5.87,5.87,0,0,1,1.18-.32l5.29-1a1.94,1.94,0,0,0,1.42-.76,1.46,1.46,0,0,0-.36-1.59,1.08,1.08,0,0,1-.24-.36.92.92,0,0,1,0-.33,2.35,2.35,0,0,0-1.55-2.28s-.09,0-.11-.07a.22.22,0,0,1,0-.14,1.36,1.36,0,0,0-.22-.78,1.54,1.54,0,0,0-.82-.64.83.83,0,0,1-.22-.08,2.59,2.59,0,0,0-.66-.23,22.27,22.27,0,0,0-3-.61,10.09,10.09,0,0,0-2.66-.06,2.38,2.38,0,0,0,1.15-1.47c.13-.92-.8-.62-1.58-.77s-2.66-.42-3.33-.59-1.35.25-2.9.81a22.23,22.23,0,0,0-4.14,1.83c-.46.41-1.55,1.68-3.09,3.44-1.14,1.31-2,1.58-5.3,1.93-5.83.61-22.22.95-22.22.95l-20.23-10.48s-9-9-13.92-10c-9.18,4.32-9,19,1.24,24.36,7.41,3.85,13.8,6.6,19.94,9.37,8.4,3.78,9.43,3.48,14.36,2.65,8.88-.9,24.72-5.26,26.17-5.45a7,7,0,0,1,1.29,0l.81.05a2.44,2.44,0,0,0,.38,0,.88.88,0,0,1,.28,0l.67.06c.44,0,.89,0,1.34,0a20,20,0,0,0,5.32-.76,5.8,5.8,0,0,0,.59-.19c.87-.34,1.75-.67,2.63-1s1.78-.61,2.67-.88,1.8-.54,2.7-.78,1.81-.46,2.72-.66c.34-.08.68-.16,1-.26a5.55,5.55,0,0,0,.52-.2,2.92,2.92,0,0,0,.52-.28,2.16,2.16,0,0,0,.43-.37.31.31,0,0,0,.07-.18A1.14,1.14,0,0,0,346.46,202.24Z" style="fill:#9e6767"></path><path d="M338.11,194.79c.89-.14,1.78-.21,2.68-.31a15.52,15.52,0,0,1,3.42-.16l0,0s-.09,0-.11-.07a.22.22,0,0,1,0-.14,1,1,0,0,0,0-.29,11.18,11.18,0,0,0-3,.09,21,21,0,0,0-2.49.46,17.8,17.8,0,0,0-2.8.76s-.1.14,0,.13C336.5,195.14,337.3,194.93,338.11,194.79Z" style="fill:#874c4c"></path><path d="M341.54,197.05a11.3,11.3,0,0,1,4.26,0,.33.33,0,0,1-.07-.13.76.76,0,0,1,0-.26,7.84,7.84,0,0,0-4-.19,22.75,22.75,0,0,0-2.49.45,18.66,18.66,0,0,0-2.8.77s-.1.14,0,.13c.82-.1,1.62-.31,2.43-.45S340.65,197.15,341.54,197.05Z" style="fill:#874c4c"></path><path d="M332.66,188.86a2.19,2.19,0,0,0-1.28.22l-1.23.5c-.83.32-1.65.65-2.46,1-.41.18-.81.35-1.21.55a2.84,2.84,0,0,0-1,.73c-.6.64-1.17,1.32-1.75,2a15.29,15.29,0,0,1-1.82,2,5.58,5.58,0,0,1-2.54,1c-1.76.28-3.53.41-5.3.54-3.54.2-4.85.21-8.39.31s-7.08.16-10.63.18l10.62-.5c3.54-.16,4.84-.17,8.37-.41,1.76-.11,3.53-.23,5.27-.5a5,5,0,0,0,2.38-.87,18.13,18.13,0,0,0,1.8-1.9c.6-.66,1.18-1.33,1.8-2a2.53,2.53,0,0,1,.53-.44,5.71,5.71,0,0,1,.6-.31c.41-.19.82-.36,1.23-.53.83-.32,1.67-.61,2.5-.9l1.25-.46A2.24,2.24,0,0,1,332.66,188.86Z" style="fill:#874c4c"></path><path d="M336.42,191.69s-2.23.25-2.82.36a13,13,0,0,1-3.25.77c-1.07-.07-1.31-.72-1.31-.72a2.49,2.49,0,0,0,2,.17c1.45-.3,1.82-1.21,1.72-1.8.38.27.28,1.28.28,1.28S335.65,191.3,336.42,191.69Z" style="fill:#874c4c"></path><path d="M260.93,176.57c-5,1.35-9.94,6.32-9.59,12.8S256.69,199,259.7,201s15.77,7.39,15.77,7.39a17.79,17.79,0,0,1,2.6-10,31.63,31.63,0,0,1,5.58-6.93s-4.57-2.4-8.78-5.13S265.77,177.28,260.93,176.57Z" style="fill:#37474f"></path></g></g></g></g><g id="freepik--character-1--inject-45"><g id="freepik--character--inject-45"><g id="freepik--bottom--inject-45"><path d="M166.28,442.69c1.41-8.89,3.68-12.21,4.44-16.83.81-4.88.73-10.34,1.29-12.46,0,0-.56-28.54-.51-40.09a84.57,84.57,0,0,1,2.79-21s.63-22.85,1.37-40.45c.2-4.8.41-8.79.69-12.24.33-6,.82-11.66,1.46-16.33l57.76,2s2,45,1.06,65.39a255,255,0,0,1-2.64,28.8c-2.28,14.92-3.94,25.71-4.5,32-.52,5.73.5,6.71,4.15,12.25s9.26,11.07,13.18,13.35,5.11,5.75.35,7.54c-3.91,1.46-12,1.86-16.5-1.43s-7.38-7.44-12.14-9.78c-1.88-.92-7.94-1.18-8.76-5.09s1.1-10.93,2.07-15.74l.07-1.55c-.5-9.8-1.35-19.45-1.88-27.86a192.89,192.89,0,0,1-.38-20.75l-1.45-38.21-1.38-.36c-2.25,11.56-5.2,26.69-6.55,33.34s-6.8,34.92-8.46,41.9c-1.18,5-2.88,11.61-3.81,15.78.66,3.25-1.3,12.81-1,22.64.1,3.27,1.39,11.43-2.07,16.28-3.24,4.55-8.5,6.75-15,1.5C163.62,450.21,165.73,446.19,166.28,442.69Z" style="fill:#b16668"></path><path d="M187.61,448.19c-.45,4.67-1.4,7.73-3.46,10.34s-5.8,3.19-9.56,2.09-8.54-3.61-9.51-7.75-.68-6.91.3-11.2Z" style="fill:#263238"></path><path d="M172,413.4c-1.56,0-.7,5.86-1.77,12.11-1.15,6.71-3.62,9.33-4.63,14.82-1.16,6.27-.84,9.14,1.69,13.18s11.76,8.51,16.51,3.36c3.88-4.2,4.17-9.16,4-15.52a135.56,135.56,0,0,1,.09-16.16c.43-4.73,1.44-9.66.1-10.29-.12.69-1.3,5.89-2,5.36a.76.76,0,0,1-.21-.45,6.26,6.26,0,0,1-.08-2.07,2.1,2.1,0,0,0,0-.75,1.08,1.08,0,0,0-.28-.5,3.44,3.44,0,0,0-1.79-.88,26.58,26.58,0,0,0-9.3-.87,1,1,0,0,0-.62.23.88.88,0,0,0-.17.41,18.56,18.56,0,0,0-.23,2,1.61,1.61,0,0,1-.15.61.56.56,0,0,1-.52.3c-.57-.06-.49-.8-.54-1.19s-.17-1-.2-1.54A5.09,5.09,0,0,1,172,413.4Z" style="fill:#BA68C8"></path><path d="M172,413.4c-1.56,0-.7,5.86-1.77,12.11-1.15,6.71-3.62,9.33-4.63,14.82-1.16,6.27-.84,9.14,1.69,13.18s11.76,8.51,16.51,3.36c3.88-4.2,4.17-9.16,4-15.52a135.56,135.56,0,0,1,.09-16.16c.43-4.73,1.44-9.66.1-10.29-.12.69-1.3,5.89-2,5.36a.76.76,0,0,1-.21-.45,6.26,6.26,0,0,1-.08-2.07,2.1,2.1,0,0,0,0-.75,1.08,1.08,0,0,0-.28-.5,3.44,3.44,0,0,0-1.79-.88,26.58,26.58,0,0,0-9.3-.87,1,1,0,0,0-.62.23.88.88,0,0,0-.17.41,18.56,18.56,0,0,0-.23,2,1.61,1.61,0,0,1-.15.61.56.56,0,0,1-.52.3c-.57-.06-.49-.8-.54-1.19s-.17-1-.2-1.54A5.09,5.09,0,0,1,172,413.4Z" style="opacity:0.4"></path><path d="M166,438.55c-.18.91-1.26,6.9.67,8.14s3.38-3.34,3.38-3.34,5-.9,12.16,2.31c-.4,1,.63,4.29,2.63,3.75s3-7.42,3-7.51c.13,6.1-.25,10.89-4,15-4.75,5.15-14,.68-16.51-3.36s-2.85-6.91-1.69-13.18C165.72,439.7,165.86,439.11,166,438.55Z" style="opacity:0.30000000000000004"></path><path d="M170.61,443.8c-.09,2.3-2.76,1.32-2.79-1.93s2.29-10.78,2.42-16.36c1.07-6.25.21-12.12,1.77-12.11,0,.08.35,4.09.34,4.58-.16,4.68-.48,13.48-1.07,17.72A61.31,61.31,0,0,0,170.61,443.8Z" style="fill:#263238"></path><path d="M181.38,445.54a62.07,62.07,0,0,0,1.7-7.94c.66-4.2,2.25-13,3.44-17.53.27-1,1.47-5.13,1.48-5.17,1,.41.47,3.37.23,6.53-.24,1.83-.65,4.07-1.22,6.78-1.48,5.36-1.44,13.31-2.41,16.4S180.81,447.75,181.38,445.54Z" style="fill:#263238"></path><path d="M182.37,445.86a.48.48,0,0,1-.21-.07,22,22,0,0,0-12-2,.65.65,0,0,1-.7-.4.47.47,0,0,1,.43-.57,23,23,0,0,1,12.8,2.1.47.47,0,0,1,.22.68A.57.57,0,0,1,182.37,445.86Z" style="fill:#f0f0f0"></path><path d="M183.8,441a.7.7,0,0,1-.19-.06,27.25,27.25,0,0,0-13.4-2.19.62.62,0,0,1-.68-.41.48.48,0,0,1,.45-.56,28.08,28.08,0,0,1,14.15,2.32.48.48,0,0,1,.26.67A.58.58,0,0,1,183.8,441Z" style="fill:#f0f0f0"></path><path d="M170.72,434a.59.59,0,0,1-.48-.36.46.46,0,0,1,.38-.6c7-1.46,13.85,2.05,14.14,2.21a.46.46,0,0,1,.22.67.62.62,0,0,1-.78.15c-.07,0-6.69-3.45-13.24-2.07A1,1,0,0,1,170.72,434Z" style="fill:#f0f0f0"></path><path d="M171.1,430.21a.6.6,0,0,1-.48-.35.45.45,0,0,1,.36-.6,21.23,21.23,0,0,1,14.43,2.19.45.45,0,0,1,.17.68.62.62,0,0,1-.79.1,20.28,20.28,0,0,0-13.44-2A.53.53,0,0,1,171.1,430.21Z" style="fill:#f0f0f0"></path><path d="M171.49,425.77a.62.62,0,0,1-.47-.35.45.45,0,0,1,.35-.61c7.26-1.72,14.23,2.16,14.52,2.33a.46.46,0,0,1,.2.68.61.61,0,0,1-.79.12c-.07,0-6.81-3.79-13.55-2.18A.75.75,0,0,1,171.49,425.77Z" style="fill:#f0f0f0"></path><path d="M170,369.53a178.14,178.14,0,0,1,3.17-17.92s.43-6.59.68-15.17-.27-16.48.3-27.93.92-19.53,1.89-27.95h61.84c2.29,23.81.17,52.13-.14,67.82a234.36,234.36,0,0,1-3,31.3c-1.13,7.32-3.95,24.95-3.95,24.95-1.43,1.3-5.18,2.73-9.86,2.72a17.25,17.25,0,0,1-10.36-3.13s-2.21-14.14-2.82-26.46a74.54,74.54,0,0,1,1.14-15.2l-2.68-27.63-3.3,14.41c-3.2,16.18-12.32,58.2-12.32,58.2s-3.43,2.66-9.75,1.76c-6.71-.95-9.45-3.28-9.45-3.28S169.2,377.24,170,369.53Z" style="fill:#455a64"></path><path d="M206.23,334.93l2.64-14.3s11.85-2.63,15.4-8.91c0,0-1.23,8.52-13.74,12.94l-2.07,10.84.45,27.06Z" style="fill:#263238"></path><path d="M252.44,441.34c.29,0,.57,3.24-1.08,4.52-1.9,1.47-7.38,3.78-14.39,2.5s-8.91-2.79-11.61-5.3-5.17-5.13-8.33-6c-2.93-.81-7.39-2.23-8.29-3.19s-.56-5-.56-5Z" style="fill:#263238"></path><path d="M211.79,411.29a1.26,1.26,0,0,0-1.24.92c-.28,1.11-.68,4.36-1.24,6.18a46.54,46.54,0,0,0-1.07,11.85c.28,2.11,6.34,3.72,9.37,5.06s5.3,3.1,8.37,5.91a21.72,21.72,0,0,0,12.8,5.45c5.45.24,11.67-1.2,13.2-3.66,1.9-3,2.31-6-5.57-10.17-1.49-.79-5.53-3.79-7.3-5a33.55,33.55,0,0,1-5.12-4.71,18.15,18.15,0,0,1-2.55-3.62,11.55,11.55,0,0,1-1.15-2.44,24.8,24.8,0,0,1-.35-2.59c-.09-.51-.24-1.18-.71-1.41a4.57,4.57,0,0,0-2.26-.32,27.42,27.42,0,0,0-5.48.93,3.33,3.33,0,0,0-1.89,1.07,2.91,2.91,0,0,0-.44,1.48,10.28,10.28,0,0,1-.12,1.57.94.94,0,0,1-.24.5c-.28.27-.71,0-.94-.21a21.93,21.93,0,0,1-2-2.72c-.35-.49-2-.88-2.51-1.28a18.44,18.44,0,0,1-1.54-1.23C211.3,412.3,211.78,412,211.79,411.29Z" style="fill:#BA68C8"></path><path d="M211.79,411.29a1.26,1.26,0,0,0-1.24.92c-.28,1.11-.68,4.36-1.24,6.18a46.54,46.54,0,0,0-1.07,11.85c.28,2.11,6.34,3.72,9.37,5.06s5.3,3.1,8.37,5.91a21.72,21.72,0,0,0,12.8,5.45c5.45.24,11.67-1.2,13.2-3.66,1.9-3,2.31-6-5.57-10.17-1.49-.79-5.53-3.79-7.3-5a33.55,33.55,0,0,1-5.12-4.71,18.15,18.15,0,0,1-2.55-3.62,11.55,11.55,0,0,1-1.15-2.44,24.8,24.8,0,0,1-.35-2.59c-.09-.51-.24-1.18-.71-1.41a4.57,4.57,0,0,0-2.26-.32,27.42,27.42,0,0,0-5.48.93,3.33,3.33,0,0,0-1.89,1.07,2.91,2.91,0,0,0-.44,1.48,10.28,10.28,0,0,1-.12,1.57.94.94,0,0,1-.24.5c-.28.27-.71,0-.94-.21a21.93,21.93,0,0,1-2-2.72c-.35-.49-2-.88-2.51-1.28a18.44,18.44,0,0,1-1.54-1.23C211.3,412.3,211.78,412,211.79,411.29Z" style="opacity:0.4"></path><path d="M226,441.21a41.59,41.59,0,0,0-3.6-3.06h0s8.43,3.84,12.4,1.42c2.56-1.56,1.49-3.67,1.46-4.33s6.22-3.15,8.63-3.32h0c.65.41,1.2.73,1.54.92C254.29,437,253.88,440,252,443c-1.53,2.46-6.08,4.2-13.11,3.84A22.43,22.43,0,0,1,226,441.21Z" style="opacity:0.30000000000000004"></path><path d="M235.68,433.28c4.91,2.27,2.72,3.1,1.31,3.23s-8.29-4.32-13.24-8.67c-5.15-4.53-9.61-9.26-11.52-10.93-.72-.62-1.48-1.38-2.16-2.08.19-1.1.35-2.1.48-2.62a1.79,1.79,0,0,1,1.36-1.15l-.07,1.55a5.73,5.73,0,0,0,1.7,1.06,5.62,5.62,0,0,1,2.28,1.65,21.93,21.93,0,0,0,2,2.72C222,423.84,230.76,431,235.68,433.28Z" style="fill:#263238"></path><path d="M236.67,435.75a.53.53,0,0,1-.31-.13.49.49,0,0,1,0-.7,12,12,0,0,1,9.38-3.16.5.5,0,0,1,.41.57.48.48,0,0,1-.57.41,11.11,11.11,0,0,0-8.49,2.85A.49.49,0,0,1,236.67,435.75Z" style="fill:#f0f0f0"></path><path d="M232.41,433.05a.47.47,0,0,1-.31-.12.49.49,0,0,1,0-.7,11.92,11.92,0,0,1,9.3-3.37.49.49,0,1,1-.13,1,11.09,11.09,0,0,0-8.42,3A.5.5,0,0,1,232.41,433.05Z" style="fill:#f0f0f0"></path><path d="M228.5,430a.53.53,0,0,1-.31-.13.49.49,0,0,1,0-.7,12,12,0,0,1,9.38-3.16.5.5,0,0,1,.41.57.49.49,0,0,1-.57.42,11.07,11.07,0,0,0-8.49,2.84A.49.49,0,0,1,228.5,430Z" style="fill:#f0f0f0"></path><path d="M225.44,427.1a.51.51,0,0,1-.32-.12.49.49,0,0,1-.06-.7,12,12,0,0,1,9.24-3.55.51.51,0,0,1,.44.56.5.5,0,0,1-.56.43,11.1,11.1,0,0,0-8.36,3.2A.48.48,0,0,1,225.44,427.1Z" style="fill:#f0f0f0"></path><path d="M221.8,423.69a.51.51,0,0,1-.31-.11.5.5,0,0,1-.07-.7c2-2.44,6.41-4,10.1-3.55a.5.5,0,0,1,.44.56.49.49,0,0,1-.55.43c-3.33-.41-7.46,1-9.22,3.19A.5.5,0,0,1,221.8,423.69Z" style="fill:#f0f0f0"></path></g><g id="freepik--top--inject-45"><path id="freepik--arm--inject-45" d="M245.62,303.25c2.46,5.34,1.47,6.28,3.32,9.64,2.28,4.16,5.64,7.31,8.53,11a1.65,1.65,0,0,0,.87.7c.54.1,1-.38,1.26-.89a5,5,0,0,0-.3-3.92,21.64,21.64,0,0,1-1.58-3.72c-.69-3.08,4.91,1.88,5.46,2.39,2,1.89,6.07,5,8.88,5.15,2.58.1,6-1.53,4.77-4.46a32,32,0,0,0-4.6-7.61c-3.66-4.52-9.69-7.15-12.56-12.3a23.36,23.36,0,0,1-1.51-3.65c-2.89-8.27-6.07-16.34-9.26-24.52-1.11-2.86-3.12-9-3.12-9s-3.82-21.14-4.85-27.33c-1.62-9.8-4.07-16.06-14.6-16.27,0,0-3.39,8.79-2.43,17.94,1.06,10.1,2.25,14.9,3.36,23.4a54.14,54.14,0,0,0,2.94,11.74C232.56,277.9,244.57,301,245.62,303.25Z" style="fill:#b16668"></path><path d="M229.28,218c7.92,2,9.29,5.24,11.07,10.44s5.27,30,5.27,30a18.55,18.55,0,0,1-8.82,4.32,20.26,20.26,0,0,1-10.25-1.38s-4.11-22.92-4.45-27.58S221.08,216.61,229.28,218Z" style="fill:#37474f"></path><path d="M176.23,264.67c.24-6.26-2.27-28-2.26-30.71,0-5.41-.51-10.29,6.49-12.93,0,0,13.08-6,27.54-5.61,13.29.32,21.28,2.57,21.28,2.57,3.45,3.28,5.64,7.17,7.24,24.57.4,4.45,2.61,31.13,1.73,45.76-9.49,13.15-47.6,12.91-64.66-.11C173.59,288.21,175.87,273.87,176.23,264.67Z" style="fill:#fafafa"></path><path d="M206.75,215.4v.95h0l1.22,0a97.48,97.48,0,0,1,20.82,2.48c3,2.86,5.19,6.47,6.78,23.8,0,.29,2.65,29.56,1.75,45.34-4.29,5.64-15.09,9.14-28.3,9.14-13.42,0-26.53-3.57-34.41-9.33.43-2.77,2.26-15,2.57-23.09.15-4.09-.83-14.57-1.55-22.22-.38-4.08-.72-7.61-.71-8.52,0-.36,0-.71,0-1.06,0-4.89,0-8.75,5.89-11h0c.13-.06,12.33-5.55,25.9-5.55v-.95m0,0A71.27,71.27,0,0,0,180.46,221c-7,2.64-6.49,7.52-6.49,12.93,0,2.7,2.5,24.45,2.26,30.71-.36,9.2-2.64,23.54-2.64,23.54,8.59,6.56,22.51,9.87,35.43,9.87,12.74,0,24.52-3.23,29.23-9.76.88-14.63-1.33-41.31-1.73-45.76-1.6-17.4-3.79-21.29-7.24-24.57,0,0-8-2.25-21.28-2.57l-1.25,0Z" style="fill:#e0e0e0"></path><path d="M210.69,202.87a4.41,4.41,0,0,0-1.26,5.38,8.74,8.74,0,0,0,4.39,4c-2.13,1.15-2.37,4.36-1,6.35s3.8,3,6.17,3.47a6.56,6.56,0,0,0,2.54,4.18,24.71,24.71,0,0,1,3.68,3.39,7.31,7.31,0,0,1,1.41,5.06c1.93-1.18,2.45-3.73,2.5-6a9.46,9.46,0,0,0-1-5.18,5.78,5.78,0,0,0-5.57-2.68,7.14,7.14,0,0,0-1.62-9.13c1.42-2.61,2.24-6.06.38-8.37a13.13,13.13,0,0,0-2.95-2.24c-1.1-.79-2.19-1.58-3.24-2.44a16.4,16.4,0,0,1-4.92-6.16,4.44,4.44,0,0,0-1.73,3.08C208,198,208.51,201.36,210.69,202.87Z" style="fill:#263238"></path><path d="M224.3,196.37a5.69,5.69,0,0,0,.27-.89,4.66,4.66,0,0,0,4.43-1.36,4.45,4.45,0,0,0,.7-4.59,2.84,2.84,0,0,0,5-1.45,2.1,2.1,0,0,1-2,1,1.46,1.46,0,0,1-1.18-1.72c.23-.75,1.07-1.08,1.8-1.34,1.17-.42,2.5-1.18,2.51-2.42,0-1-.94-1.8-1.76-2.43s-1.71-1.51-1.54-2.53c.13-.73.76-1.25,1.12-1.9a3.74,3.74,0,0,0-.82-4.21,10.94,10.94,0,0,0-3.91-2.34,5.54,5.54,0,0,1-2.63-1.72,17.69,17.69,0,0,0-1.77-1.9c-6.16-5.78-15.58-7.28-23.65-5.76a24,24,0,0,0-10.67,4.62,14.82,14.82,0,0,0-3.45,4,11.28,11.28,0,0,0-1.06,2.35,14.62,14.62,0,0,1-.54,2.48c-10.85,7-3.72,28.3,8.17,36.37,2.06,1.4,4.89,1.23,7.23.83a38.87,38.87,0,0,0,13.91-5.78,41.57,41.57,0,0,0,6.08-4.64A14.26,14.26,0,0,0,224.3,196.37Z" style="fill:#263238"></path><path d="M226.91,190.67c.24,2.5.66,3.48.91,7.51a15.61,15.61,0,0,1-2.6,10.25c-2.26,3.14-6.57,5-10.84,5.39l-1,.07.41,3.8c6.95,7.59-10.08,12.57-19.25,1.73l-1.89-17.73s-1.08,2.14-4.7,1.19c-2.37-.63-4.55-4.35-3.45-7.59a3.79,3.79,0,0,1,4.22-2.72c2.79.33,2.89,4,4.75,3.44,1.08-.31,1.7-1.94,1.92-2.93a21.68,21.68,0,0,0-.57-3.74,10,10,0,0,0,3.19-8.87,27.11,27.11,0,0,0,4.85-.79,22.16,22.16,0,0,0,5.44-2.55,9.47,9.47,0,0,0,4.33-6.49,16,16,0,0,0,9.68,5.6,1.49,1.49,0,0,1,.74.25,1.58,1.58,0,0,1,.33.48c1.09,2.16,2.72,4.14,3.16,6.55A40.68,40.68,0,0,1,226.91,190.67Z" style="fill:#b16668"></path><path d="M208.36,191.46a2.08,2.08,0,0,1-1.78,2.37,2.14,2.14,0,1,1,1.78-2.37Z" style="fill:#263238"></path><path d="M203.45,187l3.75-1.85a2.09,2.09,0,0,0-3.75,1.85Z" style="fill:#263238"></path><path d="M218.71,184.27l4,1.29a2.13,2.13,0,0,0-4-1.29Z" style="fill:#263238"></path><path d="M207.94,201.08l6.56,1.58a3.31,3.31,0,0,1-4,2.61A3.55,3.55,0,0,1,207.94,201.08Z" style="fill:#9a4a4d"></path><path d="M208.09,203.11a2.55,2.55,0,0,1,1.1-.42,2.71,2.71,0,0,1,3,2.42s0,.07,0,.1a3.25,3.25,0,0,1-1.67.06A3.47,3.47,0,0,1,208.09,203.11Z" style="fill:#f28f8f"></path><path d="M222.58,190.49a2.1,2.1,0,0,1-1.78,2.38,2.12,2.12,0,0,1-2.31-1.88,2.1,2.1,0,0,1,1.78-2.38A2.12,2.12,0,0,1,222.58,190.49Z" style="fill:#263238"></path><polygon points="212.39 187.07 213.5 197.88 219.46 195.6 212.39 187.07" style="fill:#9a4a4d"></polygon><path d="M213.36,213.87a29.85,29.85,0,0,1-12.65-2.8,13.83,13.83,0,0,1-4.91-4.34,11.88,11.88,0,0,0,3,5.13c4.79,4.42,14.83,4.31,14.83,4.31Z" style="fill:#9a4a4d"></path><path d="M183.22,209.11l.14.15a6.38,6.38,0,0,0,2.95,10.87,5.39,5.39,0,0,0,5.65,7.18c-.74,1.45,0,3.29,1.25,4.36a37.82,37.82,0,0,0,3.7,2.54,6,6,0,0,1,2.49,2.61,5,5,0,0,1,.2,2.12.29.29,0,0,0,0,.22c.07.1.23.08.35,0,2-.71,2.25-3.24,2.29-5.07a9.48,9.48,0,0,0-1-5.18,6.51,6.51,0,0,0-5-2.94,9.1,9.1,0,0,0,.82-6,4.33,4.33,0,0,0-1.93-3.05,9.15,9.15,0,0,0,.81-5.88,6.78,6.78,0,0,0-.55-1.88,7.21,7.21,0,0,0-3.42-3c-.59-.3-1.23-.43-1.81-.71a10.43,10.43,0,0,1-1.88-1.44,21.65,21.65,0,0,1-2.78-2.72c-.82-1-1.32-2.34-2.14-3.23a6.66,6.66,0,0,0-2.73,5.41,7.39,7.39,0,0,0,.94,3.5A8.21,8.21,0,0,0,183.22,209.11Z" style="fill:#263238"></path><path id="freepik--arm--inject-45" d="M153.91,261.64s6.67-16.84,9.41-24.59,7.05-13.23,17.65-13.44a26.48,26.48,0,0,1,2.25,16.8c-2,9-12.09,33.36-12.09,33.36s4.75,17.62,10.54,25.73c.9,1.26,2.94,1.77,4.31,2.22a48.2,48.2,0,0,1,5.34,1.86,32.62,32.62,0,0,1,5.32,3.32,1.89,1.89,0,0,1,.47.42c.32.45.18.74-.21,1.09a3.55,3.55,0,0,1-2.78.67,13.37,13.37,0,0,1-2.81-.85c-.77-.29-3.26-1.11-2.3.68.4.74,1.27,1.25,1.84,1.87a13.43,13.43,0,0,0,2.49,1.94l6.27,4.35c.68.48,1.44,1.11,1.37,1.93a1.66,1.66,0,0,1-.88,1.21,5.22,5.22,0,0,1-1.46.48,1,1,0,0,0-.41.18,1.4,1.4,0,0,0-.26.73,1.77,1.77,0,0,1-1.27,1.21,3.86,3.86,0,0,1-1.82,0,3.94,3.94,0,0,0-1.13-.14,9.53,9.53,0,0,0-1.81.64c-1.22.37-2.51-.16-3.77-.38-.82-.15-1.67-.18-2.48-.4s-1.32-.58-2-.83a16.13,16.13,0,0,1-3.68-2,38.19,38.19,0,0,1-7.61-7.73A116.38,116.38,0,0,1,154,279.31C151.35,271.68,152.15,268.17,153.91,261.64Z" style="fill:#b16668"></path><path d="M180.46,221c-8.32,1.5-12,2.71-17.5,15.11a176.39,176.39,0,0,0-8.17,21.75,23.76,23.76,0,0,0,10.71,6.6c6.69,1.9,9.55,1.71,9.55,1.71s5.57-15.61,7.48-21.61S186,227.17,180.46,221Z" style="fill:#37474f"></path></g></g></g><g id="freepik--speech-bubble--inject-45"><g id="freepik--speech-bubble--inject-45"><g id="freepik--speech-bubble--inject-45"><path d="M270.12,97A28.79,28.79,0,0,1,253.31,110l-3.23.73A28.87,28.87,0,0,1,236,54.92l3.19-.88a28.86,28.86,0,0,1,31,43Z" style="fill:#fafafa"></path><path d="M261.36,55.33A31.33,31.33,0,0,0,225,106.1l-1.63,9.6a1.82,1.82,0,0,0,2.91,1.74l7.67-6a31.34,31.34,0,0,0,27.4-56.12ZM270.12,97A28.79,28.79,0,0,1,253.31,110l-3.23.73A28.87,28.87,0,0,1,236,54.92l3.19-.88a28.86,28.86,0,0,1,31,43Z" style="fill:#455a64"></path></g><path id="freepik--Heart--inject-45" d="M245.31,100.14c-20.39-10.85-22-22.51-16.11-28.2,5.31-5.11,15-1.74,16.11,5.55,1.08-7.29,10.79-10.66,16.1-5.55C267.33,77.63,265.69,89.29,245.31,100.14Z" style="fill:#BA68C8"></path></g></g></svg>
